<?xml version="1.0" encoding="utf-8"?>
<!-- Generator: Adobe Illustrator 16.0.4, SVG Export Plug-In . SVG Version: 6.00 Build 0)  -->
<!DOCTYPE svg PUBLIC "-//W3C//DTD SVG 1.1//EN" "http://www.w3.org/Graphics/SVG/1.1/DTD/svg11.dtd">
<svg version="1.1" id="Layer_1" xmlns="http://www.w3.org/2000/svg" xmlns:xlink="http://www.w3.org/1999/xlink" x="0px" y="0px"
	 width="539.311px" height="257.241px" viewBox="0 0 539.311 257.241" enable-background="new 0 0 539.311 257.241"
	 xml:space="preserve">
<g>
	<path d="M506.281,231.91h1.84l2.69-8.004l2.646,8.004h1.84l3.657-10.373l-1.702-0.346l-2.829,8.465l-2.714-8.326h-1.748
		l-2.714,8.326l-2.829-8.465l-1.748,0.414L506.281,231.91z M496.552,230.576c-0.736,0-1.403-0.368-1.403-1.403
		c0-1.173,1.427-1.771,2.922-2.162c0,0,0.229-0.023,1.104-0.253v2.714C498.461,229.978,497.288,230.576,496.552,230.576
		 M500.945,232.209l1.219-1.242l-1.173-1.104v-5.589c0-2.276-1.748-3.082-3.565-3.082c-1.794,0-3.128,1.059-3.611,1.403l0.874,1.288
		c0.322-0.207,1.564-1.104,2.668-1.104c1.196,0,1.817,0.553,1.817,1.726v0.896l-1.288,0.276c-2.553,0.621-4.531,1.403-4.531,3.634
		c0,1.656,1.15,2.737,2.921,2.737c1.427,0,2.576-0.782,3.175-1.219L500.945,232.209z M488.065,232.048
		c1.726,0,3.542-1.035,3.542-3.013c0-2.14-1.771-2.807-3.082-3.474c-0.851-0.46-1.587-0.713-1.587-1.655
		c0-0.69,0.69-1.104,1.495-1.104c0.806,0,1.633,0.276,2.094,0.621l0.827-1.38c-0.598-0.438-1.541-0.852-2.943-0.852
		c-1.449,0-3.267,0.897-3.267,2.761c0,1.655,0.967,2.368,2.415,3.082c1.242,0.574,2.208,1.058,2.208,2.023
		c0,0.874-0.759,1.38-1.748,1.38c-0.851,0-1.609-0.253-2.254-0.689l-0.828,1.426C485.72,231.726,486.801,232.048,488.065,232.048
		 M478.268,227.126c-1.195,0-2.185-0.943-2.185-2.186c0-1.241,0.989-2.208,2.162-2.208c1.195,0,2.162,0.967,2.162,2.208
		C480.407,226.16,479.44,227.126,478.268,227.126 M478.291,235.912c-1.541,0-2.783-1.059-2.783-2.438
		c0-1.403,1.288-2.438,2.806-2.438c1.519,0,2.783,1.058,2.783,2.438S479.832,235.912,478.291,235.912 M478.291,237.384
		c2.53,0,4.646-1.656,4.646-3.887c0-2.646-2.645-3.703-3.863-3.818l-0.023-1.127c1.794-0.322,3.151-1.725,3.151-3.611
		c0-0.781-0.253-1.448-0.667-2.047h2.368v-1.748l-3.541,0.621c-0.621-0.391-1.334-0.575-2.094-0.575
		c-2.115,0-3.956,1.564-3.956,3.749c0,1.817,1.38,3.289,3.151,3.611l-0.046,1.127c-1.081,0.115-3.727,1.173-3.727,3.818
		C473.69,235.751,475.715,237.384,478.291,237.384 M469.413,231.91h1.816v-10.58h-1.816V231.91z M470.333,219.099
		c0.689,0,1.242-0.552,1.242-1.242c0-0.689-0.553-1.241-1.242-1.241c-0.69,0-1.242,0.552-1.242,1.241
		C469.091,218.547,469.643,219.099,470.333,219.099 M459.661,236.786c3.588,0,5.888-1.887,5.888-5.728v-14.973h-1.932v14.766
		c0,3.221-1.863,4.209-3.956,4.209V236.786z"/>
	<path d="M513.392,202.239c0.72,0,1.4,0.63,1.501,1.42v0.961c0,0.8-0.672,1.62-1.521,1.62c-0.86,0-1.38-0.6-1.38-1.62v-0.761
		C511.991,202.84,512.531,202.239,513.392,202.239 M515.82,201.561h-0.928v0.699c-0.36-0.5-0.901-0.84-1.651-0.84
		c-1.45,0-2.179,1.079-2.179,2.489v0.66c0,1.521,0.749,2.49,2.179,2.49c0.77,0,1.291-0.4,1.651-0.939v0.539
		c0,1.04-0.37,1.761-1.672,1.761c-0.489,0-1.21-0.109-1.819-0.38v0.869c0.51,0.2,1.16,0.34,1.8,0.34
		c1.791,0,2.619-1.118,2.619-2.529V201.561z M505.212,206.909h0.93v-3.2c0.029-0.909,0.72-1.42,1.449-1.42
		c0.651,0,1.262,0.41,1.262,1.431v3.189h0.929v-3.26c0-1.4-0.61-2.229-1.96-2.229c-0.75,0-1.311,0.311-1.68,0.81v-0.669h-0.93
		V206.909z M500.051,203.859c0-1.02,0.591-1.62,1.45-1.62c0.861,0,1.461,0.601,1.461,1.62v0.761c0,1.021-0.6,1.62-1.461,1.62
		c-0.859,0-1.45-0.6-1.45-1.62V203.859z M499.122,204.569c0,1.621,1.06,2.49,2.379,2.49c1.321,0,2.391-0.869,2.391-2.49v-0.66
		c0-1.62-1.069-2.489-2.391-2.489c-1.319,0-2.379,0.869-2.379,2.489V204.569z M494.131,199.36h-0.979v7.549h0.979v-3.43h1.15
		l2.27,3.43h1.181l-2.641-3.91l2.5-3.639h-1.12l-2.18,3.26h-1.16V199.36z M486.531,202.239c0.721,0,1.4,0.63,1.501,1.42v0.961
		c0,0.8-0.67,1.62-1.521,1.62c-0.859,0-1.38-0.6-1.38-1.62v-0.761C485.131,202.84,485.671,202.239,486.531,202.239 M488.961,201.561
		h-0.929v0.699c-0.36-0.5-0.9-0.84-1.651-0.84c-1.449,0-2.179,1.079-2.179,2.489v0.66c0,1.521,0.749,2.49,2.179,2.49
		c0.771,0,1.291-0.4,1.651-0.939v0.539c0,1.04-0.37,1.761-1.671,1.761c-0.49,0-1.21-0.109-1.819-0.38v0.869
		c0.509,0.2,1.159,0.34,1.799,0.34c1.791,0,2.62-1.118,2.62-2.529V201.561z M478.353,206.909h0.929v-3.2
		c0.03-0.909,0.72-1.42,1.451-1.42c0.649,0,1.26,0.41,1.26,1.431v3.189h0.929v-3.26c0-1.4-0.608-2.229-1.959-2.229
		c-0.751,0-1.311,0.311-1.681,0.81v-0.669h-0.929V206.909z M473.191,203.859c0-1.02,0.59-1.62,1.451-1.62
		c0.859,0,1.46,0.601,1.46,1.62v0.761c0,1.021-0.601,1.62-1.46,1.62c-0.861,0-1.451-0.6-1.451-1.62V203.859z M472.262,204.569
		c0,1.621,1.06,2.49,2.381,2.49c1.319,0,2.389-0.869,2.389-2.49v-0.66c0-1.62-1.069-2.489-2.389-2.489
		c-1.321,0-2.381,0.869-2.381,2.489V204.569z M470.781,199.36h-0.979v3.24h-3.671v-3.24h-0.979v7.549h0.979v-3.399h3.671v3.399
		h0.979V199.36z"/>
	<path d="M523.748,171.868v-1.471c-0.378,0.042-0.692,0.084-0.966,0.084c-0.924,0-1.239-0.336-1.239-1.112v-6.909h2.037v-1.575
		h-2.037v-2.415h-1.05l-0.84,2.415h-1.029v1.575h1.029v7.203c0,1.869,0.798,2.457,2.394,2.457
		C522.488,172.12,523.034,172.078,523.748,171.868 M512.199,170.503c-1.072,0-1.912-0.714-1.912-2.163v-3.948
		c0-1.386,0.946-2.1,2.016-2.1c1.262,0,2.185,0.966,2.185,1.659v4.809C514.487,169.474,513.5,170.503,512.199,170.503
		 M508.376,168.36c0,2.395,1.366,3.76,3.276,3.76c1.281,0,2.142-0.609,2.877-1.471l0.966,1.261h0.903v-11.025h-0.903l-0.966,1.281
		c-0.65-0.819-1.533-1.491-2.751-1.491c-1.722,0-3.402,1.302-3.402,3.696V168.36z M501.531,170.503
		c-1.071,0-1.911-0.714-1.911-2.163v-3.948c0-1.386,0.945-2.1,2.017-2.1c1.218,0,2.142,0.924,2.184,1.617v4.851
		C503.82,169.474,502.833,170.503,501.531,170.503 M497.709,168.36c0,2.395,1.365,3.76,3.276,3.76c1.26,0,2.121-0.588,2.835-1.429
		v0.715c0,2.142-0.945,2.688-2.961,2.688c-0.777,0-1.323-0.062-2.395-0.21v1.596c0.945,0.231,2.143,0.294,2.604,0.294
		c3.339,0,4.662-1.532,4.662-4.283v-10.605h-0.903l-0.966,1.281c-0.651-0.819-1.533-1.491-2.751-1.491
		c-1.722,0-3.402,1.302-3.402,3.696V168.36z M491.305,172.12c2.709,0,4.095-1.513,4.095-4.138v-3.317c0-2.583-1.449-3.99-4.053-3.99
		c-2.583,0-4.054,1.512-4.054,3.99v3.317C487.293,170.733,488.7,172.12,491.305,172.12 M491.305,170.503
		c-1.345,0-2.121-0.819-2.121-2.205v-3.822c0-1.302,0.756-2.184,2.163-2.184c1.428,0,2.142,0.86,2.142,2.184v3.822
		C493.488,169.705,492.585,170.503,491.305,170.503 M482.883,162.312c0.715,0,1.113,0.525,1.113,1.575v0.504h1.701v-0.86
		c0-1.743-0.651-2.794-1.953-2.794c-1.05,0-1.806,0.735-2.331,1.555l-0.903-1.407h-0.944v11.025h1.911v-8.085
		C481.519,162.984,482.127,162.312,482.883,162.312 M474.714,168.676c0,0.819-1.154,1.827-2.331,1.827
		c-1.26,0-1.868-0.756-1.868-1.953v-7.665h-1.911v7.707c0,2.688,1.49,3.528,3.233,3.528c1.281,0,2.311-0.819,2.94-1.617l0.903,1.407
		h0.944v-11.025h-1.911V168.676z M466.251,167.878c0-2.604-2.184-3.423-4.011-4.2c-1.344-0.546-2.499-1.092-2.499-2.352
		c0-0.967,0.672-2.017,2.226-2.017c1.449,0,2.269,1.008,2.269,2.185l0.021,0.504h1.891v-0.441c0-1.974-1.281-4.032-4.222-4.032
		c-2.981,0-4.115,2.163-4.115,3.99c0,2.143,1.574,3.045,3.191,3.738c1.639,0.714,3.339,1.26,3.339,2.877
		c0,1.071-0.756,2.205-2.394,2.205c-1.512,0-2.499-0.987-2.499-2.311v-0.378h-1.89v0.42c0,1.953,1.322,4.054,4.305,4.054
		C464.928,172.12,466.251,169.915,466.251,167.878"/>
	<path d="M504.711,142.239c0.721,0,1.401,0.63,1.501,1.42v1.021c-0.03,0.78-0.69,1.561-1.521,1.561c-0.86,0-1.381-0.6-1.381-1.62
		v-0.761C503.311,142.84,503.852,142.239,504.711,142.239 M506.212,142.26c-0.359-0.5-0.9-0.84-1.65-0.84
		c-1.45,0-2.18,1.079-2.18,2.489v0.66c0,1.521,0.749,2.49,2.18,2.49c0.77,0,1.291-0.4,1.65-0.939v0.789h0.929v-7.549h-0.929V142.26z
		 M496.532,146.909h0.929v-3.2c0.03-0.909,0.721-1.42,1.45-1.42c0.651,0,1.261,0.41,1.261,1.431v3.189h0.93v-3.26
		c0-1.4-0.61-2.229-1.96-2.229c-0.75,0-1.311,0.311-1.681,0.81v-0.669h-0.929V146.909z M494.072,144.919
		c0,1.031-0.821,1.352-1.491,1.352c-0.649,0-0.97-0.26-0.97-0.781c0-0.68,0.32-0.859,1.31-0.859h1.151V144.919z M495.001,146.909
		v-3.299c0-1.531-0.49-2.19-2.16-2.19c-1,0-1.439,0.221-1.859,0.56v0.91c0.529-0.48,0.989-0.65,1.689-0.65
		c1.191,0,1.401,0.53,1.401,1.421v0.181h-1.102c-1.52,0-2.289,0.479-2.289,1.679c0,0.971,0.56,1.54,1.789,1.54
		c0.7,0,1.251-0.24,1.602-0.729v0.579H495.001z M488.143,145.46c0,1.051,0.25,1.6,1.328,1.6c0.24,0,0.48-0.061,0.61-0.12v-0.799
		c-0.11,0.05-0.28,0.09-0.5,0.09c-0.41,0-0.51-0.23-0.51-0.83v-6.04h-0.929V145.46z M482.082,146.909h0.929v-3.2
		c0.03-0.909,0.721-1.42,1.45-1.42c0.651,0,1.261,0.41,1.261,1.431v3.189h0.93v-3.26c0-1.4-0.609-2.229-1.959-2.229
		c-0.751,0-1.312,0.311-1.682,0.81v-0.669h-0.929V146.909z M479.542,140.449h0.989v-1.089h-0.989V140.449z M479.572,146.909h0.929
		v-5.349h-0.929V146.909z M478.091,142.62h-3.279v-2.381h3.569v-0.879h-4.549v7.549h0.979v-3.43h3.279V142.62z"/>
	<path d="M522.268,109.264c0,1.134-0.944,1.512-2.226,1.512c-1.071,0-2.185-0.566-2.667-1.028l-0.483,1.533
		c0.819,0.482,2.017,0.84,3.171,0.84c1.911,0,3.906-0.735,3.906-2.982c0-3.318-5.166-2.855-5.166-4.746
		c0-1.092,1.113-1.407,1.827-1.407c1.281,0,2.184,0.547,2.521,0.925l0.482-1.513c-0.84-0.482-1.743-0.756-3.066-0.756
		c-1.448,0-3.443,0.798-3.443,2.814C517.123,107.794,522.268,106.975,522.268,109.264 M507.757,104.35
		c0.882-0.714,1.932-1.218,2.961-1.218c1.428,0,2.163,0.609,2.163,2.604v6.175h1.68v-6.783c0-2.835-1.868-3.486-3.465-3.486
		c-1.05,0-2.31,0.42-3.423,1.407l-0.021-1.155h-1.575v10.018h1.68V104.35z M501.121,106.429c-0.483-0.042-0.987-0.084-1.512-0.084
		c-2.204,0-4.558,0.567-4.558,2.982c0,1.68,1.198,2.793,2.983,2.793c0.986,0,2.121-0.273,3.191-1.429
		c0.147,0.861,0.735,1.429,1.765,1.429c0.294,0,0.608-0.042,0.966-0.147l-0.126-1.239c-0.525,0.168-1.072,0.021-1.072-1.05
		l0.022-4.851c0.021-2.479-1.682-3.192-3.424-3.192c-1.974,0-3.654,1.008-3.654,2.541c0,0.252,0.043,0.504,0.126,0.777l1.512-0.189
		c-0.439-1.491,1.03-1.785,1.849-1.785c1.197,0,1.953,0.463,1.953,2.059L501.121,106.429z M501.121,109.495
		c-0.545,0.65-1.553,1.302-2.54,1.302c-1.072,0-1.806-0.546-1.806-1.638c0-1.387,1.448-1.743,2.834-1.743
		c0.547,0,1.071,0.062,1.512,0.126V109.495z M488.647,110.671c-1.26,0-2.688-0.735-3.465-1.407l-0.566,1.68
		c0.882,0.547,2.352,1.177,4.011,1.177c2.562,0,4.62-1.513,4.62-3.76c0-4.725-6.594-3.653-6.594-6.846
		c0-1.218,0.966-1.974,2.52-1.974c1.155,0,2.373,0.546,3.003,1.134l0.525-1.68c-0.861-0.504-2.101-0.924-3.633-0.924
		c-2.373,0-4.2,1.448-4.2,3.591c0,4.473,6.573,3.359,6.573,6.866C491.441,109.978,490.034,110.671,488.647,110.671 M467.984,102.712
		c0,2.562,1.784,3.843,4.031,3.843c1.429,0,2.583-0.462,3.549-1.092c-0.188,3.57-2.604,5.166-5.522,5.166
		c-0.462,0-0.966-0.042-1.449-0.126v1.512c0.504,0.063,0.987,0.084,1.449,0.084c4.494,0,7.266-2.793,7.266-7.518
		c0-3.864-1.26-6.51-4.767-6.51C469.643,98.071,467.984,99.939,467.984,102.712 M469.685,102.438c0-1.512,0.777-2.939,2.688-2.939
		c2.583,0,3.191,2.079,3.234,4.515c-0.693,0.567-1.807,1.092-3.046,1.092C470.588,105.105,469.685,104.308,469.685,102.438
		 M466.556,98.26H456.35v1.491h4.264v12.159h1.7V99.751h4.242V98.26z"/>
	<path d="M505.152,84.919c0,1.031-0.82,1.352-1.491,1.352c-0.65,0-0.97-0.26-0.97-0.781c0-0.68,0.319-0.86,1.311-0.86h1.15V84.919z
		 M506.081,86.909V83.61c0-1.53-0.489-2.189-2.16-2.189c-1,0-1.44,0.219-1.859,0.559v0.91c0.529-0.479,0.989-0.651,1.689-0.651
		c1.191,0,1.401,0.531,1.401,1.423v0.18h-1.101c-1.521,0-2.29,0.479-2.29,1.678c0,0.971,0.56,1.54,1.789,1.54
		c0.701,0,1.251-0.239,1.602-0.728v0.578H506.081z M499.582,80.448h0.989v-1.089h-0.989V80.448z M499.612,86.909h0.929v-5.35h-0.929
		V86.909z M495.122,82.349h0.95v2.812c0,1.16,0.479,1.898,1.709,1.898c0.319,0,0.59-0.049,0.76-0.099v-0.81
		c-0.15,0.051-0.49,0.08-0.69,0.08c-0.659,0-0.85-0.33-0.85-1.131v-2.751h1.4v-0.788h-1.4v-1.649h-0.929v1.649h-0.95V82.349z
		 M493.262,84.919c0,1.031-0.819,1.352-1.491,1.352c-0.649,0-0.97-0.26-0.97-0.781c0-0.68,0.32-0.86,1.312-0.86h1.149V84.919z
		 M494.191,86.909V83.61c0-1.53-0.489-2.189-2.159-2.189c-1.001,0-1.441,0.219-1.86,0.559v0.91c0.529-0.479,0.989-0.651,1.689-0.651
		c1.19,0,1.4,0.531,1.4,1.423v0.18h-1.1c-1.521,0-2.29,0.479-2.29,1.678c0,0.971,0.559,1.54,1.789,1.54
		c0.701,0,1.251-0.239,1.601-0.728v0.578H494.191z M485.071,83.859c0-1.02,0.59-1.621,1.45-1.621s1.461,0.602,1.461,1.621v0.761
		c0,1.021-0.601,1.62-1.461,1.62s-1.45-0.6-1.45-1.62V83.859z M484.142,84.569c0,1.621,1.06,2.489,2.38,2.489s2.39-0.868,2.39-2.489
		V83.91c0-1.62-1.069-2.489-2.39-2.489s-2.38,0.869-2.38,2.489V84.569z M480.922,86.909h0.929V83.91
		c0.03-0.922,0.721-1.621,1.45-1.621c0.08,0,0.15,0.01,0.22,0.02v-0.888c-0.75,0-1.3,0.389-1.67,0.938v-0.798h-0.929V86.909z
		 M479.751,79.72c-0.41-0.26-0.94-0.499-1.94-0.499c-1.85,0-3.219,1.219-3.219,3.489v0.92c0,2.271,1.369,3.429,3.219,3.429
		c0.811,0,1.4-0.148,1.92-0.419V85.74c-0.569,0.33-1.22,0.44-1.92,0.44c-1.3,0-2.21-0.75-2.21-2.48V82.64
		c0-1.729,1.011-2.541,2.21-2.541c0.86,0,1.5,0.261,1.94,0.621V79.72z"/>
	<path d="M516.411,51.17v-6.08c0.04-1.42,1.061-2.08,2.341-2.08h0.22c0.56,0,0.819-0.34,0.819-0.8c0-0.54-0.319-0.78-0.979-0.78
		h-0.2c-1.06,0-2.06,0.521-2.52,1.36c-0.42-1.08-1.2-1.36-1.82-1.36h-0.439c-0.561,0-0.801,0.36-0.801,0.82
		c0,0.5,0.32,0.819,0.761,0.819h0.26c0.54,0,0.64,0.461,0.64,1.08v7.021c0,0.479,0.38,0.86,0.86,0.86
		C516.031,52.03,516.411,51.649,516.411,51.17 M507.991,42.93c1.32,0,2.04,0.8,2.04,2.24v0.84h-4.819v-0.84
		c0-1.44,0.739-2.24,2.08-2.24H507.991z M507.271,50.33c-1.34,0-2.06-0.721-2.06-2.16v-0.8h5.779c0.561,0,0.761-0.301,0.761-0.74
		v-1.32c0-2.12-1.28-3.88-3.74-3.88h-0.78c-2.46,0-3.74,1.76-3.74,3.88v2.9c0,2.12,1.28,3.7,3.74,3.7h3.28
		c0.439,0,0.82-0.341,0.82-0.78c0-0.46-0.36-0.8-0.801-0.8H507.271z M501.371,51.91c0.44,0,0.801-0.341,0.801-0.78
		c0-0.46-0.34-0.8-0.801-0.8h-1.319c-0.8,0-1.181-0.4-1.181-1.4v-5.92h2.48c0.44,0,0.8-0.34,0.8-0.78c0-0.439-0.34-0.8-0.8-0.8
		h-2.48v-1.96c0-0.479-0.38-0.86-0.859-0.86c-0.48,0-0.86,0.381-0.86,0.86v1.96h-0.8c-0.44,0-0.8,0.36-0.8,0.8
		c0,0.44,0.38,0.78,0.819,0.78h0.78v6.14c0,1.761,1.04,2.761,2.7,2.761H501.371z M494.012,51.91c0.439,0,0.8-0.341,0.8-0.78
		c0-0.46-0.34-0.8-0.8-0.8h-1.32c-0.8,0-1.18-0.4-1.18-1.4v-5.92h2.479c0.44,0,0.801-0.34,0.801-0.78c0-0.439-0.341-0.8-0.801-0.8
		h-2.479v-1.96c0-0.479-0.38-0.86-0.86-0.86c-0.479,0-0.859,0.381-0.859,0.86v1.96h-0.801c-0.439,0-0.8,0.36-0.8,0.8
		c0,0.44,0.38,0.78,0.82,0.78h0.78v6.14c0,1.761,1.04,2.761,2.699,2.761H494.012z M482.172,50.33c-1.34,0-2.061-0.721-2.061-2.16v-3
		c0-1.44,0.721-2.16,2.061-2.16h0.859c1.34,0,2.061,0.72,2.061,2.16v3c0,1.439-0.721,2.16-2.061,2.16H482.172z M478.371,45.149
		v3.061c0,2.12,1.301,3.7,3.761,3.7h0.939c2.46,0,3.74-1.58,3.74-3.7v-3.061c0-2.119-1.28-3.72-3.74-3.72h-0.939
		C479.672,41.43,478.371,43.03,478.371,45.149 M474.052,51.149c0,0.48,0.38,0.86,0.859,0.86c0.48,0,0.86-0.38,0.86-0.86V38.31
		c0-0.479-0.38-0.859-0.86-0.859c-0.479,0-0.859,0.38-0.859,0.859V51.149z M467.632,40.17c1.54,0,2.46,0.38,2.46,1.82v0.479
		c0,1.48-0.98,1.94-2.62,1.94h-3.28v-4.24H467.632z M462.432,39.43v11.66c0,0.479,0.38,0.86,0.88,0.86c0.48,0,0.88-0.381,0.88-0.86
		v-5.06h3.38c3.221,0,4.28-1.601,4.28-3.62v-0.48c0-2.5-1.62-3.38-4.18-3.38h-4.36C462.812,38.55,462.432,38.93,462.432,39.43"/>
	<path d="M501.452,25.46c0,1.05,0.25,1.6,1.328,1.6c0.24,0,0.48-0.061,0.61-0.12v-0.799c-0.11,0.05-0.28,0.09-0.5,0.09
		c-0.41,0-0.51-0.23-0.51-0.83v-6.04h-0.929V25.46z M498.952,20.449h0.988V19.36h-0.988V20.449z M498.981,26.909h0.93v-5.349h-0.93
		V26.909z M497.73,21.561h-4.179v0.818h2.99l-3.07,3.841v0.689h4.289V26.09h-3.149l3.119-3.881V21.561z M491.392,24.919
		c0,1.031-0.82,1.352-1.49,1.352c-0.65,0-0.971-0.261-0.971-0.78c0-0.681,0.32-0.861,1.312-0.861h1.149V24.919z M492.32,26.909
		V23.61c0-1.531-0.488-2.19-2.158-2.19c-1.001,0-1.441,0.221-1.86,0.56v0.911c0.529-0.481,0.989-0.651,1.69-0.651
		c1.189,0,1.399,0.53,1.399,1.421v0.18h-1.1c-1.521,0-2.29,0.479-2.29,1.68c0,0.971,0.56,1.54,1.79,1.54c0.7,0,1.25-0.24,1.6-0.729
		v0.579H492.32z M484.821,26.909h0.93V23.91c0.029-0.921,0.72-1.621,1.45-1.621c0.079,0,0.149,0.01,0.22,0.021v-0.89
		c-0.75,0-1.3,0.391-1.67,0.939v-0.799h-0.93V26.909z M480.651,20.239c0.891,0,1.621,0.18,1.621,1.201c0,0.74-0.311,1.18-1.511,1.18
		h-1.581v-2.381H480.651z M480.812,23.479c1.28,0,1.661,0.39,1.661,1.331c0,0.899-0.671,1.22-1.691,1.22h-1.601v-2.551H480.812z
		 M480.892,26.909c1.91,0,2.6-0.999,2.6-2.159c0-0.961-0.499-1.551-1.26-1.78c0.66-0.31,1.049-0.789,1.049-1.619
		c0-1.241-0.788-1.99-2.509-1.99h-2.568v7.549H480.892z"/>
	<path d="M371.585,223.462v6.49c0,1.188-0.198,1.474-1.012,1.584l-0.308,0.044c-0.11,0.021-0.133,0.044-0.133,0.132v0.065
		c0,0.089,0.022,0.133,0.133,0.133h4.554c0.11,0,0.132-0.044,0.132-0.133v-0.065c0-0.088-0.021-0.11-0.132-0.132l-0.308-0.044
		c-0.771-0.11-0.947-0.396-0.947-1.584v-6.028c0.683-0.55,1.673-1.122,2.597-1.122c1.21,0,1.606,0.771,1.606,2.178v4.973
		c0,1.188-0.176,1.474-0.946,1.584l-0.308,0.044c-0.11,0.021-0.133,0.044-0.133,0.132v0.065c0,0.089,0.022,0.133,0.133,0.133h4.487
		c0.11,0,0.132-0.044,0.132-0.133v-0.065c0-0.088-0.021-0.11-0.132-0.132l-0.308-0.044c-0.77-0.11-0.946-0.396-0.946-1.584v-6.007
		c0.813-0.659,1.694-1.144,2.64-1.144c1.188,0,1.562,0.836,1.562,2.178v4.973c0,1.188-0.176,1.474-0.946,1.584l-0.308,0.044
		c-0.11,0.021-0.133,0.044-0.133,0.132v0.065c0,0.089,0.022,0.133,0.133,0.133h4.554c0.11,0,0.132-0.044,0.132-0.133v-0.065
		c0-0.088-0.021-0.11-0.132-0.132l-0.308-0.044c-0.814-0.11-1.012-0.396-1.012-1.584v-5.192c0-2.134-0.639-3.344-2.619-3.344
		c-1.385,0-2.617,0.99-3.607,2.2c-0.22-1.255-0.836-2.2-2.486-2.2c-1.474,0-2.815,1.254-3.652,2.134v-1.98
		c0-0.065-0.021-0.088-0.065-0.109l-0.044-0.022c-0.044-0.021-0.088-0.021-0.197,0.022l-2.949,1.1
		c-0.065,0.022-0.088,0.044-0.088,0.132v0.044c0,0.066,0.022,0.089,0.088,0.11l1.057,0.264
		C371.541,223.153,371.585,223.22,371.585,223.462 M365.314,229.842c-0.373,0.528-1.055,0.924-1.825,0.924
		c-0.99,0-1.606-0.572-1.606-1.562c0-0.902,0.551-1.475,1.826-2.112l1.628-0.814C365.337,227.554,365.314,228.83,365.314,229.842
		 M362.258,232.063c1.473,0,2.441-0.924,3.079-1.87c0.066,1.255,0.704,1.87,1.694,1.87c1.232,0,1.848-1.166,2.09-2.09
		c0.021-0.088,0.021-0.109-0.044-0.132l-0.065-0.022c-0.066-0.021-0.088,0-0.133,0.089c-0.197,0.418-0.462,0.792-0.924,0.792
		c-0.439,0-0.704-0.309-0.704-1.013c0-1.979,0.066-4.18,0.066-5.808c0-1.672-0.683-2.508-2.288-2.508
		c-1.958,0-5.17,1.628-5.17,3.189c0,0.683,0.374,0.969,0.945,0.969c0.705,0,1.035-0.419,1.035-1.166c0-0.44-0.045-0.902-0.045-1.211
		c0-0.594,0.814-0.989,1.76-0.989c1.211,0,1.805,0.748,1.805,1.892c0,0.572,0,1.188-0.022,1.826
		c-0.506,0.308-1.166,0.638-1.87,0.946c-1.627,0.726-3.453,1.43-3.453,3.212C360.014,231.359,360.98,232.063,362.258,232.063
		 M354.909,223.462v6.512c0,1.188-0.198,1.452-1.013,1.562l-0.307,0.044c-0.111,0.021-0.133,0.044-0.133,0.132v0.065
		c0,0.089,0.021,0.133,0.133,0.133h4.619c0.11,0,0.133-0.044,0.133-0.133v-0.065c0-0.088-0.022-0.11-0.133-0.132l-0.308-0.044
		c-0.814-0.11-1.013-0.374-1.013-1.562v-8.404c0-0.065-0.021-0.088-0.065-0.109l-0.044-0.022c-0.044-0.021-0.088-0.021-0.198,0.022
		l-2.948,1.1c-0.065,0.022-0.088,0.044-0.088,0.132v0.044c0,0.066,0.022,0.089,0.088,0.11l1.057,0.264
		C354.865,223.153,354.909,223.22,354.909,223.462 M355.833,219.81c0.683,0,1.231-0.55,1.231-1.231c0-0.683-0.549-1.232-1.231-1.232
		c-0.682,0-1.231,0.55-1.231,1.232C354.602,219.26,355.151,219.81,355.833,219.81 M348.662,218.401v11.551
		c0,1.188-0.197,1.474-1.012,1.584l-0.309,0.044c-0.109,0.021-0.132,0.044-0.132,0.132v0.065c0,0.089,0.022,0.133,0.132,0.133h4.62
		c0.11,0,0.132-0.044,0.132-0.133v-0.065c0-0.088-0.021-0.11-0.132-0.132l-0.308-0.044c-0.814-0.11-1.012-0.396-1.012-1.584V216.51
		c0-0.066-0.022-0.088-0.066-0.11l-0.044-0.021c-0.044-0.022-0.088-0.022-0.198,0.021l-2.947,1.101
		c-0.066,0.021-0.088,0.044-0.088,0.132v0.044c0,0.066,0.021,0.088,0.088,0.11l1.056,0.264
		C348.618,218.094,348.662,218.16,348.662,218.401 M342.523,218.401v11.551c0,1.188-0.197,1.474-1.012,1.584l-0.308,0.044
		c-0.11,0.021-0.132,0.044-0.132,0.132v0.065c0,0.089,0.021,0.133,0.132,0.133h4.62c0.109,0,0.132-0.044,0.132-0.133v-0.065
		c0-0.088-0.022-0.11-0.132-0.132l-0.309-0.044c-0.813-0.11-1.012-0.396-1.012-1.584V216.51c0-0.066-0.021-0.088-0.066-0.11
		l-0.043-0.021c-0.045-0.022-0.088-0.022-0.198,0.021l-2.948,1.101c-0.066,0.021-0.088,0.044-0.088,0.132v0.044
		c0,0.066,0.021,0.088,0.088,0.11l1.057,0.264C342.48,218.094,342.523,218.16,342.523,218.401 M336.452,223.462v6.512
		c0,1.188-0.198,1.452-1.013,1.562l-0.307,0.044c-0.111,0.021-0.133,0.044-0.133,0.132v0.065c0,0.089,0.021,0.133,0.133,0.133h4.619
		c0.11,0,0.133-0.044,0.133-0.133v-0.065c0-0.088-0.022-0.11-0.133-0.132l-0.308-0.044c-0.814-0.11-1.013-0.374-1.013-1.562v-8.404
		c0-0.065-0.021-0.088-0.065-0.109l-0.044-0.022c-0.044-0.021-0.088-0.021-0.198,0.022l-2.948,1.1
		c-0.065,0.022-0.088,0.044-0.088,0.132v0.044c0,0.066,0.022,0.089,0.088,0.11l1.057,0.264
		C336.408,223.153,336.452,223.22,336.452,223.462 M337.376,219.81c0.683,0,1.232-0.55,1.232-1.231c0-0.683-0.55-1.232-1.232-1.232
		c-0.682,0-1.231,0.55-1.231,1.232C336.145,219.26,336.694,219.81,337.376,219.81 M331.635,219.744l-3.586,9.504l-3.498-9.725
		c-0.154-0.418-0.242-0.857-0.242-1.275c0-0.704,0.285-1.298,1.188-1.387l0.198-0.021c0.176-0.022,0.198-0.044,0.198-0.154v-0.065
		c0-0.088-0.022-0.11-0.176-0.11h-5.875c-0.109,0-0.132,0.022-0.132,0.11v0.065c0,0.11,0.022,0.132,0.154,0.154l0.176,0.021
		c1.034,0.133,1.849,1.188,2.288,2.53l0.044,0.154l-3.498,9.636l-3.409-9.658c-0.154-0.418-0.242-0.857-0.242-1.275
		c0-0.704,0.285-1.298,1.188-1.387l0.198-0.021c0.176-0.022,0.198-0.044,0.198-0.154v-0.065c0-0.088-0.022-0.11-0.177-0.11h-5.653
		c-0.11,0-0.154,0.022-0.154,0.11v0.065c0,0.11,0.021,0.132,0.154,0.154l0.176,0.021c1.078,0.133,1.584,1.452,1.98,2.509
		l4.619,12.562c0.066,0.154,0.11,0.198,0.242,0.198h0.088c0.133,0,0.176-0.044,0.242-0.198l4.268-11.726l4.312,11.726
		c0.066,0.154,0.109,0.198,0.242,0.198h0.088c0.132,0,0.176-0.044,0.242-0.198l4.642-12.21c0.506-1.32,1.254-2.728,2.354-2.86
		l0.176-0.021c0.154-0.022,0.176-0.044,0.176-0.132v-0.088c0-0.088-0.044-0.11-0.242-0.11h-4.224c-0.132,0-0.177,0.022-0.177,0.11
		v0.088c0,0.109,0.066,0.132,0.198,0.132l0.265,0.021c0.703,0.066,1.188,0.858,1.188,1.805
		C331.832,219.018,331.766,219.392,331.635,219.744"/>
	<path d="M373.273,206.909h0.928v-3.2c0.03-0.909,0.721-1.42,1.451-1.42c0.65,0,1.261,0.41,1.261,1.431v3.189h0.929v-3.26
		c0-1.4-0.609-2.229-1.959-2.229c-0.75,0-1.312,0.311-1.682,0.81v-0.669h-0.928V206.909z M370.733,200.449h0.989v-1.089h-0.989
		V200.449z M370.764,206.909h0.929v-5.349h-0.929V206.909z M368.303,204.919c0,1.031-0.82,1.352-1.49,1.352
		c-0.65,0-0.971-0.26-0.971-0.781c0-0.68,0.32-0.86,1.311-0.86h1.15V204.919z M369.231,206.909v-3.299
		c0-1.531-0.489-2.19-2.159-2.19c-1,0-1.439,0.221-1.859,0.56v0.91c0.529-0.48,0.989-0.65,1.689-0.65c1.191,0,1.4,0.53,1.4,1.421
		v0.181h-1.101c-1.521,0-2.289,0.479-2.289,1.679c0,0.971,0.56,1.54,1.789,1.54c0.7,0,1.25-0.24,1.601-0.729v0.579H369.231z
		 M360.783,202.35h0.95v2.811c0,1.16,0.479,1.899,1.708,1.899c0.32,0,0.59-0.05,0.76-0.101v-0.809c-0.15,0.05-0.49,0.08-0.689,0.08
		c-0.66,0-0.851-0.33-0.851-1.13v-2.751h1.399v-0.789h-1.399v-1.65h-0.928v1.65h-0.95V202.35z M358.793,200.449h0.989v-1.089h-0.989
		V200.449z M358.823,206.909h0.929v-5.349h-0.929V206.909z M355.203,206.909h0.93v-3c0.029-0.92,0.719-1.62,1.449-1.62
		c0.08,0,0.15,0.011,0.221,0.021v-0.89c-0.75,0-1.301,0.39-1.67,0.939v-0.799h-0.93V206.909z M351.032,200.239
		c0.892,0,1.621,0.18,1.621,1.2c0,0.741-0.31,1.181-1.511,1.181h-1.58v-2.381H351.032z M351.192,203.479
		c1.28,0,1.661,0.39,1.661,1.33c0,0.9-0.67,1.221-1.691,1.221h-1.6v-2.551H351.192z M351.272,206.909c1.911,0,2.6-0.999,2.6-2.16
		c0-0.96-0.5-1.55-1.259-1.778c0.659-0.311,1.049-0.79,1.049-1.621c0-1.24-0.789-1.989-2.51-1.989h-2.569v7.549H351.272z
		 M341.483,202.35h0.95v2.811c0,1.16,0.479,1.899,1.709,1.899c0.32,0,0.59-0.05,0.76-0.101v-0.809c-0.15,0.05-0.49,0.08-0.689,0.08
		c-0.66,0-0.851-0.33-0.851-1.13v-2.751h1.399v-0.789h-1.399v-1.65h-0.929v1.65h-0.95V202.35z M339.623,204.919
		c0,1.031-0.82,1.352-1.49,1.352c-0.65,0-0.971-0.26-0.971-0.781c0-0.68,0.32-0.86,1.311-0.86h1.15V204.919z M340.553,206.909
		v-3.299c0-1.531-0.49-2.19-2.16-2.19c-1,0-1.44,0.221-1.859,0.56v0.91c0.529-0.48,0.989-0.65,1.689-0.65c1.19,0,1.4,0.53,1.4,1.421
		v0.181h-1.101c-1.521,0-2.289,0.479-2.289,1.679c0,0.971,0.559,1.54,1.789,1.54c0.7,0,1.251-0.24,1.601-0.729v0.579H340.553z
		 M332.993,202.239c0.86,0,1.36,0.5,1.36,1.521v0.09h-2.711C331.643,202.84,332.133,202.239,332.993,202.239 M335.282,203.811
		c0-1.621-0.969-2.391-2.289-2.391c-1.321,0-2.28,0.97-2.28,2.49v0.659c0,1.621,1.06,2.49,2.48,2.49c0.84,0,1.37-0.13,1.959-0.47
		v-0.829c-0.689,0.42-1.189,0.479-1.869,0.479c-0.951,0-1.631-0.58-1.641-1.601h3.64V203.811z M327.493,206.909h0.929v-3
		c0.03-0.92,0.721-1.62,1.45-1.62c0.08,0,0.15,0.011,0.22,0.021v-0.89c-0.75,0-1.3,0.39-1.67,0.939v-0.799h-0.929V206.909z
		 M326.042,202.73h-2.909v0.909h1.931v2.4c-0.37,0.091-0.79,0.141-1.29,0.141c-1.301,0-2.311-0.75-2.311-2.481v-1.059
		c0-1.731,1.109-2.541,2.311-2.541c0.859,0,1.6,0.26,2.039,0.62v-1c-0.409-0.26-1.039-0.499-2.039-0.499
		c-1.852,0-3.32,1.219-3.32,3.489v0.919c0,2.271,1.469,3.431,3.32,3.431c1.07,0,1.75-0.26,2.269-0.529V202.73z"/>
	<path d="M363.159,171.426c-2.618,0-4.73-1.98-4.73-5.302c0-3.477,2.156-5.391,4.774-5.391c2.706,0,4.773,2.179,5.148,5.456
		C367.934,168.983,366.107,171.426,363.159,171.426 M357.835,166.146c0,3.828,2.485,5.83,5.324,5.83c2.64,0,4.399-1.76,5.192-4.025
		v3.762c0,2.926-2.156,4.444-4.664,4.444c-1.937,0-3.652-0.551-5.104-1.519l-0.132,0.572c1.363,0.968,3.08,1.518,5.191,1.518
		c2.883,0,5.303-1.693,5.303-5.038v-11.264h-0.594v3.784c-0.793-2.398-2.619-4.026-5.127-4.026
		C360.299,160.184,357.835,162.317,357.835,166.146 M345.384,171.91h0.595v-6.513c1.254-3.102,3.233-4.664,5.17-4.664
		c1.672,0,3.08,0.925,3.08,4.093v7.084h0.594v-7.128c0-3.587-1.672-4.599-3.608-4.599c-1.849,0-3.872,1.276-5.235,4.158v-3.916
		h-0.595V171.91z M340.72,171.91h0.595v-11.484h-0.595V171.91z M341.027,157.676c-0.308,0-0.571-0.264-0.571-0.572
		c0-0.308,0.264-0.571,0.571-0.571c0.309,0,0.572,0.264,0.572,0.571C341.6,157.412,341.336,157.676,341.027,157.676
		 M340.038,157.104c0,0.528,0.462,0.969,0.989,0.969c0.551,0,0.99-0.44,0.99-0.969c0-0.55-0.439-0.968-0.99-0.968
		C340.5,156.136,340.038,156.554,340.038,157.104 M332.756,157.016c2.641,0,4.51,1.408,4.51,3.851c0,2.287-1.693,4.092-4.422,4.092
		h-2.441v-7.942H332.756z M329.764,171.91h0.639v-6.38h2.354c2.904,0,5.17-1.805,5.17-4.687c0-2.926-2.311-4.4-5.17-4.4h-2.992
		V171.91z"/>
	<path d="M365.107,144.919c0,1.031-0.819,1.352-1.49,1.352c-0.65,0-0.971-0.26-0.971-0.781c0-0.68,0.32-0.859,1.311-0.859h1.15
		V144.919z M366.037,146.909v-3.299c0-1.531-0.49-2.19-2.16-2.19c-1,0-1.439,0.221-1.859,0.56v0.91
		c0.529-0.48,0.989-0.65,1.689-0.65c1.191,0,1.4,0.53,1.4,1.421v0.181h-1.101c-1.521,0-2.289,0.479-2.289,1.679
		c0,0.971,0.56,1.54,1.789,1.54c0.701,0,1.251-0.24,1.601-0.729v0.579H366.037z M359.538,140.449h0.989v-1.089h-0.989V140.449z
		 M359.568,146.909h0.929v-5.349h-0.929V146.909z M353.468,146.909h0.929v-3.2c0.03-0.909,0.721-1.42,1.451-1.42
		c0.65,0,1.26,0.41,1.26,1.431v3.189h0.93v-3.26c0-1.4-0.609-2.229-1.959-2.229c-0.751,0-1.311,0.311-1.682,0.81v-0.669h-0.929
		V146.909z M348.307,143.859c0-1.02,0.59-1.62,1.451-1.62c0.86,0,1.46,0.601,1.46,1.62v0.761c0,1.021-0.6,1.62-1.46,1.62
		c-0.861,0-1.451-0.6-1.451-1.62V143.859z M347.378,144.569c0,1.621,1.06,2.49,2.38,2.49s2.389-0.869,2.389-2.49v-0.66
		c0-1.62-1.068-2.489-2.389-2.489s-2.38,0.869-2.38,2.489V144.569z M343.208,142.35h0.95v2.811c0,1.16,0.479,1.899,1.709,1.899
		c0.32,0,0.59-0.05,0.76-0.101v-0.809c-0.15,0.05-0.49,0.08-0.689,0.08c-0.66,0-0.851-0.33-0.851-1.13v-2.751h1.399v-0.789h-1.399
		v-1.65h-0.929v1.65h-0.95V142.35z M338.388,146.64c0.459,0.25,1.279,0.41,1.86,0.41c1.029,0,2.27-0.499,2.27-1.69
		c0-1.1-0.689-1.469-1.59-1.539l-0.6-0.05c-0.531-0.04-1.121-0.14-1.121-0.721c0-0.54,0.46-0.801,1.24-0.801
		c0.511,0,1.24,0.16,1.84,0.5v-0.93c-0.459-0.249-1.119-0.409-1.939-0.409c-1.051,0-2.029,0.569-2.029,1.589
		c0,1.181,0.799,1.511,1.639,1.561l0.531,0.04c0.649,0.03,1.119,0.25,1.119,0.819c0,0.581-0.539,0.821-1.319,0.821
		c-0.701,0-1.291-0.22-1.9-0.52V146.64z M337.247,146.03h-3.66v-2.551h3.28v-0.859h-3.28v-2.381h3.569v-0.879h-4.549v7.549h4.64
		V146.03z"/>
	<path d="M371.41,103.924c0.945,0,1.297,0.858,1.209,1.716h-2.662C370.002,104.628,370.441,103.924,371.41,103.924 M373.852,107.84
		c-0.374,1.012-0.99,1.54-1.914,1.54c-0.88,0-1.914-0.374-1.98-1.76h6.513c0.11-0.353,0.153-0.969,0.153-1.387
		c0-3.409-2.243-5.147-5.258-5.147c-3.102,0-5.588,2.023-5.588,5.588c0,3.938,2.662,5.61,5.633,5.61c2.97,0,4.487-1.65,5.037-3.257
		L373.852,107.84z M355.855,101.46v2.728h1.629v3.498c0,2.926,1.627,4.599,4.422,4.599c1.693,0,3.102-0.748,3.717-1.475
		l-1.737-2.354c-0.308,0.374-0.683,0.594-1.144,0.594c-0.616,0-1.145-0.462-1.145-1.474v-3.389h3.102l0.309-2.728h-3.52l0.109-3.344
		h-3.74l-0.197,3.344H355.855z M349.277,101.086c-3.388,0-5.939,2.067-5.939,5.61c0,3.739,2.552,5.588,5.939,5.588
		c3.366,0,5.918-2.068,5.918-5.588C355.195,102.934,352.644,101.086,349.277,101.086 M349.277,103.88c0.946,0,1.65,0.594,1.65,2.771
		c0,2.223-0.704,2.816-1.65,2.816c-0.968,0-1.672-0.594-1.672-2.816C347.605,104.474,348.31,103.88,349.277,103.88 M326.596,107.994
		l-0.286-7.128l1.804,5.5l2.09,5.544h3.631l2.156-6.007l1.627-5.104l-0.131,7.194v3.916h4.246V97.83h-6.557l-1.936,5.874
		l-0.881,2.992l-0.857-3.036l-2.024-5.83h-6.907v14.08h4.025V107.994z"/>
	<path d="M358.027,82.238c0.861,0,1.361,0.501,1.361,1.522v0.09h-2.711C356.678,82.84,357.167,82.238,358.027,82.238
		 M360.316,83.811c0-1.621-0.969-2.39-2.289-2.39s-2.279,0.969-2.279,2.49v0.658c0,1.621,1.059,2.489,2.479,2.489
		c0.842,0,1.371-0.129,1.961-0.469v-0.83c-0.689,0.421-1.189,0.48-1.871,0.48c-0.949,0-1.629-0.58-1.639-1.602h3.639V83.811z
		 M353.098,85.461c0,1.049,0.25,1.598,1.33,1.598c0.239,0,0.479-0.059,0.609-0.119v-0.799c-0.109,0.05-0.28,0.09-0.5,0.09
		c-0.41,0-0.51-0.229-0.51-0.83v-6.04h-0.93V85.461z M350.598,80.448h0.989v-1.089h-0.989V80.448z M350.628,86.909h0.929v-5.35
		h-0.929V86.909z M344.527,86.909h0.93v-3.2c0.029-0.91,0.721-1.42,1.451-1.42c0.65,0,1.26,0.409,1.26,1.43v3.19h0.93v-3.261
		c0-1.398-0.609-2.228-1.959-2.228c-0.752,0-1.312,0.309-1.682,0.809V79.36h-0.93V86.909z M343.357,79.72
		c-0.41-0.26-0.94-0.499-1.94-0.499c-1.851,0-3.219,1.219-3.219,3.489v0.92c0,2.271,1.368,3.429,3.219,3.429
		c0.81,0,1.399-0.148,1.92-0.419V85.74c-0.569,0.33-1.22,0.44-1.92,0.44c-1.3,0-2.21-0.75-2.21-2.48V82.64
		c0-1.729,1.01-2.541,2.21-2.541c0.86,0,1.5,0.261,1.94,0.621V79.72z"/>
	<path d="M374.252,39.229c1,0,1.7-0.72,1.7-1.52s-0.46-1.5-1.521-1.5c-0.959,0-1.68,0.8-1.68,1.6
		C372.752,38.63,373.332,39.229,374.252,39.229 M371.872,51.91c0.58,0,2.08-0.021,2.601-0.021c0.859,0,2.039,0.021,2.439,0.021
		c0.02-0.36,0.02-0.54,0-0.86l-1.28-0.06c-0.021-1.421-0.021-3.261-0.021-4.2c0-1.681,0-3.601,0.021-5.28
		c-0.64,0.021-3.22,0.24-3.88,0.32c-0.02,0.34-0.02,0.439,0,0.8l1.46,0.42c0.021,1.08,0.021,2.68,0.021,3.76
		c0,0.94,0,2.84-0.061,4.16l-1.3,0.08C371.852,51.43,371.852,51.49,371.872,51.91 M365.992,51.91c0.561,0,2.061-0.021,2.58-0.021
		c0.779,0,2.439,0.021,2.439,0.021c0.041-0.38,0.041-0.521,0-0.88l-1.4-0.061c0-1.479,0.041-4.6,0.041-5.979
		c0-2.381-1.24-3.58-3.061-3.58c-1.3,0-2.56,0.92-3.16,1.54c0-0.5,0-0.98,0.021-1.44c-0.64,0.021-3.22,0.24-3.88,0.32
		c-0.02,0.34-0.02,0.439,0,0.8l1.46,0.42c0.021,1.08,0.021,2.86,0.021,3.94c0,0.939,0,2.659-0.061,3.979l-1.301,0.08
		c-0.02,0.38-0.02,0.44,0,0.86c0.58,0,2.08-0.021,2.601-0.021c0.86,0,2.04,0.021,2.46,0.021c0.02-0.36,0.02-0.54-0.02-0.86
		l-1.28-0.06c-0.021-1.421-0.021-3.101-0.021-4.021v-3.46c0.7-0.28,1.42-0.4,1.92-0.4c1.58,0,1.881,0.96,1.881,2.721
		c0,0.939,0,3.779-0.041,5.14l-1.199,0.08C365.973,51.43,365.973,51.49,365.992,51.91 M353.393,51.05c-1.641,0-2.42-2.34-2.42-4.44
		c0-2.34,0.659-4.119,2.479-4.119c1.659,0,2.54,1.92,2.54,4.38C355.992,49.069,355.393,51.05,353.393,51.05 M353.292,52.109
		c3.36,0,5.14-2.5,5.14-5.619c0-3.04-1.879-5.101-4.879-5.101c-2.98,0-5.021,2.44-5.021,5.58
		C348.532,50.01,350.332,52.109,353.292,52.109 M344.773,39.229c1,0,1.699-0.72,1.699-1.52s-0.459-1.5-1.52-1.5
		c-0.96,0-1.68,0.8-1.68,1.6C343.273,38.63,343.854,39.229,344.773,39.229 M342.393,51.91c0.58,0,2.08-0.021,2.601-0.021
		c0.86,0,2.04,0.021,2.44,0.021c0.02-0.36,0.02-0.54,0-0.86l-1.281-0.06c-0.02-1.421-0.02-3.261-0.02-4.2c0-1.681,0-3.601,0.02-5.28
		c-0.639,0.021-3.219,0.24-3.879,0.32c-0.021,0.34-0.021,0.439,0,0.8l1.459,0.42c0.021,1.08,0.021,2.68,0.021,3.76
		c0,0.94,0,2.84-0.06,4.16l-1.301,0.08C342.373,51.43,342.373,51.49,342.393,51.91 M341.533,41.649
		c-0.301-0.199-0.62-0.26-0.96-0.26c-0.979,0-1.94,1.141-2.62,2.08v-0.02c0-0.181-0.2-1.42-0.46-1.94
		c-0.64,0.04-2.66,0.24-3.32,0.32c-0.021,0.34-0.021,0.439,0,0.8l1.38,0.42c0.021,1.08,0.021,2.98,0.021,4.06
		c0,0.921,0,2.54-0.06,3.86l-1.281,0.08c-0.02,0.38-0.02,0.44,0,0.86c0.561,0,2.08-0.021,2.601-0.021c0.979,0,3.06,0.021,3.34,0.021
		c0.021-0.44,0.021-0.521-0.021-0.88l-2.18-0.08c-0.02-1.42-0.02-2.721-0.02-3.86v-3.16c0.72-0.3,1.38-0.42,2.141-0.42
		c0.379,0,0.799,0.06,1.199,0.14L341.533,41.649z M327.014,39.67c1.58,0,2.52,0.72,2.52,2.46c0,1.64-1.1,2.4-2.439,2.4h-0.58
		c-0.061,0-0.461-0.021-0.521-0.021c0-1.18,0-3.58,0.04-4.84H327.014z M327.354,50.87c-0.44,0-0.881,0-1.34-0.04
		c-0.021-1.2-0.021-4-0.021-5.3c0.06,0,0.479-0.021,0.54-0.021h0.64c2.4,0,3.2,1.24,3.2,2.8
		C330.373,49.83,329.434,50.87,327.354,50.87 M324.812,38.609c-0.52,0-2.16-0.02-3.06-0.02c-0.021,0.44-0.021,0.54,0,0.94
		c0.16,0.02,1.521,0.039,1.761,0.06c0.039,1.04,0.039,4.479,0.039,5.54c0,0.9,0,4.4-0.08,5.8l-1.76,0.061
		c-0.02,0.38-0.02,0.479,0,0.92c0.74,0,2.48-0.021,3-0.021c1.52,0.021,2.42,0.061,2.9,0.061c3.46,0,5.359-1.44,5.359-3.9
		c0-2.3-2.24-3.14-3.359-3.34c0.859-0.28,2.48-1.28,2.48-2.98c0-2.16-1.861-3.12-4.441-3.12H324.812z"/>
	<path d="M360.197,26.909h0.93v-3.2c0.029-0.91,0.62-1.42,1.35-1.42c0.651,0,1.262,0.41,1.262,1.43v3.19h0.929v-3.13
		c0-0.96,0.6-1.49,1.35-1.49c0.651,0,1.261,0.41,1.261,1.43v3.19h0.93v-3.26c0-1.4-0.609-2.229-1.959-2.229
		c-0.842,0-1.441,0.4-1.801,0.999c-0.289-0.639-0.859-0.999-1.739-0.999c-0.731,0-1.241,0.3-1.581,0.77v-0.629h-0.93V26.909z
		 M358.617,21.561h-0.93v3.13c0,0.96-0.65,1.49-1.4,1.49c-0.65,0-1.26-0.311-1.26-1.33v-3.29h-0.93v3.26
		c0,1.399,0.669,2.229,2.02,2.229c0.721,0,1.23-0.29,1.57-0.759v0.619h0.93V21.561z M351.607,20.449h0.989V19.36h-0.989V20.449z
		 M351.638,26.909h0.929v-5.349h-0.929V26.909z M347.628,22.239c0.72,0,1.399,0.63,1.5,1.42v0.961c0,0.8-0.67,1.62-1.521,1.62
		c-0.86,0-1.381-0.6-1.381-1.62v-0.76C346.227,22.839,346.767,22.239,347.628,22.239 M350.057,21.561h-0.929v0.698
		c-0.36-0.499-0.899-0.839-1.649-0.839c-1.451,0-2.181,1.079-2.181,2.49v0.66c0,1.52,0.749,2.489,2.181,2.489
		c0.77,0,1.289-0.399,1.649-0.939v0.54c0,1.04-0.37,1.76-1.67,1.76c-0.491,0-1.211-0.109-1.82-0.38v0.87
		c0.509,0.199,1.159,0.339,1.8,0.339c1.791,0,2.619-1.119,2.619-2.529V21.561z M342.648,25.46c0,1.05,0.25,1.6,1.328,1.6
		c0.24,0,0.48-0.061,0.61-0.12v-0.799c-0.11,0.05-0.28,0.09-0.5,0.09c-0.41,0-0.511-0.23-0.511-0.83v-6.04h-0.928V25.46z
		 M339.088,22.239c0.859,0,1.359,0.5,1.359,1.521v0.091h-2.711C337.736,22.839,338.227,22.239,339.088,22.239 M341.377,23.811
		c0-1.621-0.969-2.391-2.289-2.391c-1.321,0-2.28,0.97-2.28,2.49v0.659c0,1.621,1.06,2.49,2.479,2.49c0.841,0,1.371-0.131,1.96-0.47
		v-0.83c-0.689,0.421-1.189,0.48-1.869,0.48c-0.951,0-1.631-0.58-1.642-1.601h3.641V23.811z M332.888,20.239
		c0.89,0,1.621,0.18,1.621,1.201c0,0.74-0.312,1.18-1.511,1.18h-1.581v-2.381H332.888z M333.048,23.479
		c1.28,0,1.661,0.39,1.661,1.331c0,0.899-0.672,1.22-1.691,1.22h-1.601v-2.551H333.048z M333.128,26.909
		c1.909,0,2.599-0.999,2.599-2.159c0-0.961-0.498-1.551-1.259-1.78c0.66-0.31,1.049-0.789,1.049-1.619
		c0-1.241-0.788-1.99-2.509-1.99h-2.568v7.549H333.128z"/>
	<path d="M262.354,225.241h-3.819l1.558-3.972l0.475-1.443h0.133l0.399,1.481L262.354,225.241z M267.18,231.074
		c-0.608-0.418-1.235-1.179-1.444-1.729l-4.028-11.077l-1.615,0.209l-4.712,11.077c-0.247,0.589-0.646,1.064-1.273,1.521
		c0,0.246,0.019,0.551,0.076,0.836h4.541c0.057-0.209,0.076-0.665,0.076-0.836l-1.045-0.305c-0.627-0.189-0.95-0.589-0.95-1.025
		c0-0.096,0.019-0.209,0.057-0.305l1.178-2.964h4.712l0.912,2.774c0.038,0.151,0.076,0.304,0.076,0.475
		c0,0.438-0.209,0.855-0.57,0.95l-1.349,0.399c0,0.266,0.019,0.551,0.076,0.836h5.206
		C267.161,231.701,267.18,231.245,267.18,231.074 M251.144,218.42c0-1.045-2.128-1.14-2.869-1.14c-2.014,0-3.838,1.785-3.838,3.818
		v0.494l-1.52,0.247v0.95h1.52v3.933l-0.057,2.755c0,0.723-0.38,1.045-0.893,1.254c0,0-0.532,0.229-0.817,0.343
		c0,0.284,0.019,0.551,0.076,0.836h5.928c0.095-0.305,0.095-0.685,0.095-0.988l-2.318-0.494c-0.19-0.038-0.209-0.114-0.209-0.323
		l-0.133-3.382v-3.933h2.261v-1.179h-2.261v-0.437c0-1.482,0.114-2.603,2.356-2.603c0.57,0,1.425,0.551,2.033,1.083
		C250.858,219.408,251.144,219.009,251.144,218.42 M238.947,219.75c0.323,0,1.425-1.197,1.425-1.425
		c0-0.285-1.159-1.406-1.425-1.406c-0.285,0-1.406,1.083-1.406,1.406C237.541,218.609,238.643,219.75,238.947,219.75
		 M236.344,231.91h5.396c0.076-0.209,0.095-0.799,0.095-0.97l-1.653-0.304c-0.209-0.038-0.323-0.095-0.323-0.418l-0.057-3.477
		v-4.655c0-0.513-0.228-0.685-0.76-0.685c-0.836,0-2.147,0.267-2.831,0.418v0.97h1.938v3.952l-0.057,2.888
		c-0.019,0.342-0.304,0.912-0.608,1.026l-1.197,0.418C236.287,231.32,236.306,231.625,236.344,231.91 M235.47,221.498
		c-0.171-0.058-0.646-0.152-1.254-0.152c-1.292,0-2.508,0.741-2.983,1.577v-0.836c0-0.513-0.19-0.685-0.722-0.685
		c-0.836,0-2.147,0.247-2.831,0.399v0.969h1.919v3.934l-0.038,2.488c-0.019,0.723-0.342,1.255-0.665,1.426l-0.893,0.456
		c-0.019,0.246,0.019,0.551,0.076,0.836h5.434c0.076-0.209,0.076-0.799,0.076-0.97l-1.976-0.304
		c-0.247-0.038-0.285-0.189-0.285-0.494l-0.076-3.438v-2.851c0.437-0.513,1.425-0.816,2.698-0.816c0.608,0,0.969,0.113,1.216,0.209
		L235.47,221.498z M224.354,225.754h-4.921c0.152-2.166,1.349-3.306,2.85-3.306S224.354,223.626,224.354,225.754 M226.292,226.837
		v-0.532c0-3.078-1.14-4.978-3.838-4.978c-2.888,0-4.75,2.223-4.75,5.928c0,3.933,2.09,4.826,4.807,4.826
		c1.539,0,2.812-0.305,3.553-0.761l-0.304-1.025c-0.779,0.189-1.691,0.323-2.736,0.323c-1.919,0-3.477-0.438-3.61-3.781H226.292z
		 M215.899,228.281c0-2.584-2.223-3.478-4.199-4.275c-1.577-0.627-2.793-1.254-2.793-2.527c0-1.272,1.064-1.957,2.774-1.957
		c1.406,0,2.698,0.988,2.983,2.395h0.798v-2.983c-0.893-0.456-2.337-0.646-3.819-0.646c-2.28,0-4.427,1.463-4.427,3.8
		c0,2.204,1.786,3.135,3.496,3.8s3.344,1.178,3.344,2.641c0,1.673-1.159,2.395-2.698,2.395c-2.033,0-3.268-1.007-3.496-2.793h-1.007
		l-0.152,3.173c1.216,0.532,2.755,0.817,4.085,0.817C213.296,232.119,215.899,231.017,215.899,228.281 M196.995,229.516
		c0,0-1.748,0.969-2.888,0.969c-1.083,0-1.425-0.569-1.425-1.14c0-0.95,0.665-1.558,1.957-1.862c0.969-0.228,2.356-0.38,2.356-0.38
		V229.516z M200.965,231.245l-0.133-0.761h-2.071l-0.133-3.762v-2.641c0-2.698-2.28-2.755-3.743-2.755
		c-1.14,0-2.28,0.209-3.306,0.627l0.304,1.102c0.684-0.209,1.748-0.398,2.489-0.398c1.862,0,2.622,0.418,2.622,1.938v1.482
		c0,0-1.254,0.133-2.47,0.322c-1.748,0.285-3.61,1.217-3.61,3.249c0,1.597,1.121,2.413,2.508,2.413c1.862,0,3.23-1.272,3.591-1.652
		c0.019,0.74,0.076,1.652,1.387,1.652C199.084,232.062,200.662,231.53,200.965,231.245 M190.211,221.498
		c-0.171-0.058-0.646-0.152-1.254-0.152c-1.292,0-2.508,0.741-2.983,1.577v-0.836c0-0.513-0.19-0.685-0.722-0.685
		c-0.836,0-2.147,0.247-2.831,0.399v0.969h1.919v3.934l-0.038,2.488c-0.019,0.723-0.342,1.255-0.665,1.426l-0.893,0.456
		c-0.019,0.246,0.019,0.551,0.076,0.836h5.434c0.076-0.209,0.076-0.799,0.076-0.97l-1.976-0.304
		c-0.247-0.038-0.285-0.189-0.285-0.494l-0.076-3.438v-2.851c0.437-0.513,1.425-0.816,2.698-0.816c0.608,0,0.969,0.113,1.216,0.209
		L190.211,221.498z M177.919,226.723l-0.076,2.926c-0.665,0.438-1.387,0.779-2.28,0.779c-1.748,0-2.831-0.722-2.831-3.229
		c0-2.547,0.513-4.541,3.021-4.541c1.026,0,1.672,0.171,2.166,0.266V226.723z M181.701,231.226l-0.133-0.741h-1.919l-0.076-3.762
		v-8.645c0-0.514-0.228-0.685-0.76-0.685c-0.836,0-2.147,0.267-2.831,0.438v0.893h1.938v2.945c-0.608-0.133-1.14-0.209-2.109-0.209
		c-2.679,0-4.883,2.185-4.883,5.681c0,3.857,2.052,4.902,3.99,4.902c1.292,0,2.242-0.665,2.983-1.559
		c0,0.665,0.076,1.559,0.988,1.559C179.934,232.043,181.188,231.53,181.701,231.226 M167.298,225.754h-4.921
		c0.152-2.166,1.349-3.306,2.85-3.306S167.298,223.626,167.298,225.754 M169.236,226.837v-0.532c0-3.078-1.14-4.978-3.838-4.978
		c-2.888,0-4.75,2.223-4.75,5.928c0,3.933,2.09,4.826,4.807,4.826c1.539,0,2.812-0.305,3.553-0.761l-0.304-1.025
		c-0.779,0.189-1.691,0.323-2.736,0.323c-1.919,0-3.477-0.438-3.61-3.781H169.236z M159.299,221.649v-3.173h-9.652
		c-0.095,0.247-0.114,0.589-0.095,0.741l1.425,0.494c0.323,0.114,0.456,0.456,0.456,0.76v6.251l-0.057,2.812
		c0,0.531-0.285,1.063-0.741,1.196l-1.102,0.343c-0.019,0.246,0.019,0.551,0.076,0.836h6.08c0.076-0.209,0.095-0.874,0.095-1.045
		l-2.014-0.399c-0.38-0.076-0.551-0.323-0.57-0.684l-0.057-3.04v-0.57l5.358,0.095v-1.52l-5.358,0.171v-5.206l3.515,0.209
		c1.235,0.076,1.501,0.816,1.729,1.71C158.54,221.707,159.09,221.688,159.299,221.649"/>
	<path d="M226.408,209.129l0.72-2.22h0.01l2.04-5.349h-0.96l-1.61,4.398l-1.569-4.398h-1.01l2.099,5.568l-0.719,2H226.408z
		 M218.629,206.909h0.929v-3.2c0.03-0.909,0.72-1.42,1.45-1.42c0.651,0,1.261,0.41,1.261,1.431v3.189h0.929v-3.26
		c0-1.4-0.609-2.229-1.96-2.229c-0.75,0-1.31,0.311-1.68,0.81v-0.669h-0.929V206.909z M216.169,204.919
		c0,1.031-0.82,1.352-1.491,1.352c-0.65,0-0.97-0.26-0.97-0.781c0-0.68,0.32-0.86,1.31-0.86h1.151V204.919z M217.098,206.909v-3.299
		c0-1.531-0.49-2.19-2.16-2.19c-1,0-1.44,0.221-1.859,0.56v0.91c0.529-0.48,0.989-0.65,1.689-0.65c1.191,0,1.401,0.53,1.401,1.421
		v0.181h-1.101c-1.52,0-2.289,0.479-2.289,1.679c0,0.971,0.559,1.54,1.789,1.54c0.701,0,1.251-0.24,1.601-0.729v0.579H217.098z
		 M203.599,206.909h0.929v-3.2c0.03-0.909,0.62-1.42,1.35-1.42c0.651,0,1.261,0.41,1.261,1.431v3.189h0.929v-3.13
		c0-0.96,0.6-1.49,1.35-1.49c0.651,0,1.261,0.41,1.261,1.431v3.189h0.929v-3.26c0-1.4-0.609-2.229-1.959-2.229
		c-0.841,0-1.441,0.399-1.801,0.999c-0.29-0.64-0.859-0.999-1.739-0.999c-0.731,0-1.241,0.301-1.581,0.77v-0.629h-0.929V206.909z
		 M199.979,206.909h0.929v-3c0.03-0.92,0.72-1.62,1.45-1.62c0.08,0,0.15,0.011,0.22,0.021v-0.89c-0.75,0-1.3,0.39-1.67,0.939v-0.799
		h-0.929V206.909z M196.379,202.239c0.86,0,1.36,0.5,1.36,1.521v0.09h-2.711C195.028,202.84,195.518,202.239,196.379,202.239
		 M198.668,203.811c0-1.621-0.969-2.391-2.289-2.391c-1.321,0-2.28,0.97-2.28,2.49v0.659c0,1.621,1.059,2.49,2.48,2.49
		c0.84,0,1.37-0.13,1.959-0.47v-0.829c-0.689,0.42-1.189,0.479-1.869,0.479c-0.951,0-1.631-0.58-1.641-1.601h3.64V203.811z
		 M192.898,202.73h-2.909v0.909h1.93v2.4c-0.37,0.091-0.79,0.141-1.29,0.141c-1.301,0-2.311-0.75-2.311-2.481v-1.059
		c0-1.731,1.11-2.541,2.311-2.541c0.86,0,1.6,0.26,2.039,0.62v-1c-0.409-0.26-1.039-0.499-2.039-0.499
		c-1.851,0-3.32,1.219-3.32,3.489v0.919c0,2.271,1.469,3.431,3.32,3.431c1.07,0,1.75-0.26,2.269-0.529V202.73z"/>
	<path d="M241.462,162.076c1.188,0,2.354,0.22,3.058,0.462v6.666c-0.858,0.813-2.134,1.363-3.454,1.363
		c-2.398,0-3.894-1.407-3.894-4.224C237.172,162.912,239.262,162.076,241.462,162.076 M240.648,172.174
		c1.606,0,2.992-0.771,3.938-1.782v1.519h1.716v-14.301h-1.782v3.389c-1.056-0.33-2.178-0.484-3.41-0.484
		c-3.41,0-5.808,1.98-5.808,5.896C235.302,170.282,237.524,172.174,240.648,172.174 M229.34,164.166
		c0.99-0.968,2.464-1.826,3.894-1.826c0.352,0,0.704,0.021,1.034,0.066v-1.826c-0.264-0.022-0.44-0.022-0.66-0.022
		c-1.65,0-3.234,1.057-4.268,2.112v-1.893h-1.782v11.133h1.782V164.166z M216.602,168.698c0-1.475,1.188-2.024,2.684-2.486
		l3.168-1.012v4.048c-0.858,0.792-2.156,1.452-3.52,1.452C217.438,170.7,216.602,170.062,216.602,168.698 M215.414,162.758
		c1.012-0.308,2.42-0.594,3.938-0.594c1.54,0,2.882,0.374,3.08,1.76l-3.674,1.144c-2.442,0.727-4.048,1.54-4.048,3.763
		c0,2.288,1.43,3.344,3.674,3.344c1.54,0,3.014-0.704,4.07-1.672v1.408h1.782v-7.942c0-2.684-2.134-3.454-4.598-3.454
		c-1.474,0-2.948,0.198-4.356,0.682L215.414,162.758z M203.997,160.777h-1.936l4.356,11.133h2.794l4.18-11.133h-1.848l-3.63,9.57
		h-0.154L203.997,160.777z M199.927,157.609h-1.782v14.301h1.782V157.609z M187.057,167.729c-0.088-0.396-0.132-0.836-0.132-1.342
		c0-2.815,1.452-4.29,3.652-4.29c1.782,0,2.926,1.166,2.926,2.706L187.057,167.729z M194.999,169.952
		c-1.034,0.352-2.376,0.615-3.564,0.615c-1.606,0-3.058-0.396-3.872-1.628l7.898-3.344v-0.462c0-2.508-1.65-4.62-4.862-4.62
		c-3.366,0-5.544,2.311-5.544,5.896c0,4.201,2.706,5.785,6.116,5.785c1.364,0,2.728-0.264,4.004-0.726L194.999,169.952z
		 M175.793,171.91c4.224,0,7.194-2.376,7.194-7.15c0-4.708-2.926-7.15-7.194-7.15h-5.786v14.301H175.793z M171.833,170.304v-11.088
		h3.828c3.52,0,5.478,2.178,5.478,5.544c0,3.521-2.112,5.544-5.478,5.544H171.833z"/>
	<path d="M224.869,146.909h0.929v-2.45h0.76l1.64,2.45h1.07l-1.96-2.87l1.81-2.479h-1.05l-1.46,2.13h-0.81v-4.33h-0.929V146.909z
		 M221.249,146.909h0.929v-3c0.03-0.92,0.72-1.62,1.45-1.62c0.08,0,0.15,0.011,0.22,0.021v-0.89c-0.75,0-1.3,0.39-1.67,0.939v-0.799
		h-0.929V146.909z M218.789,144.919c0,1.031-0.82,1.352-1.49,1.352c-0.651,0-0.971-0.26-0.971-0.781c0-0.68,0.32-0.859,1.311-0.859
		h1.15V144.919z M219.718,146.909v-3.299c0-1.531-0.489-2.19-2.159-2.19c-1.001,0-1.441,0.221-1.86,0.56v0.91
		c0.529-0.48,0.989-0.65,1.69-0.65c1.19,0,1.4,0.53,1.4,1.421v0.181h-1.1c-1.521,0-2.29,0.479-2.29,1.679
		c0,0.971,0.56,1.54,1.79,1.54c0.7,0,1.25-0.24,1.6-0.729v0.579H219.718z M206.219,146.909h0.929v-3.2
		c0.03-0.909,0.62-1.42,1.351-1.42c0.65,0,1.26,0.41,1.26,1.431v3.189h0.929v-3.13c0-0.96,0.6-1.49,1.351-1.49
		c0.65,0,1.26,0.41,1.26,1.431v3.189h0.929v-3.26c0-1.4-0.609-2.229-1.959-2.229c-0.841,0-1.441,0.399-1.801,0.999
		c-0.289-0.64-0.859-0.999-1.739-0.999c-0.73,0-1.241,0.301-1.581,0.77v-0.629h-0.929V146.909z M200.12,146.909h0.928v-3.2
		c0.03-0.909,0.721-1.42,1.451-1.42c0.65,0,1.261,0.41,1.261,1.431v3.189h0.928v-3.26c0-1.4-0.609-2.229-1.959-2.229
		c-0.75,0-1.311,0.311-1.681,0.81v-0.669h-0.928V146.909z M196.519,142.239c0.86,0,1.361,0.5,1.361,1.521v0.09h-2.712
		C195.167,142.84,195.659,142.239,196.519,142.239 M198.808,143.811c0-1.621-0.968-2.391-2.289-2.391
		c-1.321,0-2.279,0.97-2.279,2.49v0.659c0,1.621,1.058,2.49,2.479,2.49c0.84,0,1.37-0.13,1.96-0.47v-0.829
		c-0.689,0.42-1.19,0.479-1.87,0.479c-0.95,0-1.631-0.58-1.641-1.601h3.64V143.811z M189.969,140.239c1.21,0,2.131,0.67,2.131,2.4
		v1.061c0,1.73-0.821,2.33-2.131,2.33h-1.34v-5.791H189.969z M189.969,139.36h-2.319v7.549h2.319c1.851,0,3.13-1.009,3.13-3.279
		v-0.921C193.099,140.439,191.82,139.36,189.969,139.36"/>
	<path d="M246.863,111.39c-1.72,0-2.84-1.72-2.84-4.52c0-2.44,0.84-4.221,2.54-4.221c1.64,0,2.76,1.7,2.76,4.66
		C249.323,109.93,248.443,111.39,246.863,111.39 M246.463,112.17c3.28,0,5.34-2.2,5.34-5.36c0-3.06-1.94-4.899-4.84-4.899
		c-3.22,0-5.4,2.3-5.4,5.46C241.563,110.33,243.483,112.17,246.463,112.17 M232.523,104.33l0.02-0.3
		c0.88-0.261,1.64-0.381,2.24-0.381c1.74,0,2.42,0.92,2.42,3.7c0,3.26-0.58,3.58-1.8,4.561c0,0,1.2-0.08,2.34-0.08
		s3.1,0.08,3.1,0.08c-1.42-1-1.44-1.561-1.46-5.92c-0.02-2.921-1.04-4.08-2.98-4.08c-1.3,0-2.54,0.54-3.98,2.06l0.08-2.12
		l-3.76,1.22c1.42,0.94,1.62,1.36,1.62,4.54c0,2.66-0.14,3.221-1.48,4.301c0,0,1.24-0.08,2.58-0.08c1.34,0,2.82,0.08,2.82,0.08
		c-1.58-0.98-1.76-1.46-1.76-4.9V104.33z M227.063,101.91c-1.02,0-2.1,0.72-3.04,2.3h-0.06l0.08-2.36l-3.76,1.22
		c1.42,0.94,1.62,1.36,1.62,4.54c0,2.66-0.14,3.221-1.48,4.301c0,0,1.18-0.08,2.52-0.08c1.34,0,3.4,0.08,3.4,0.08
		c-2.08-0.98-2.28-1.46-2.28-4.9v-2.68c0.38-0.221,0.8-0.38,1.2-0.38c0.68,0,1.04,0.479,1.78,0.479c0.84,0,1.34-0.62,1.34-1.34
		C228.383,102.31,227.843,101.91,227.063,101.91 M209.563,108.05c0,2.82,0.98,4.12,3,4.12c1.34,0,2.4-0.58,3.8-2.08l0.06,0.36
		c-0.02,0.119-0.02,1.64-0.04,1.739l3.54-0.62c-1.32-0.739-1.44-2.039-1.44-4.439c0-1.38,0.06-3.66,0.1-5.28l-4.06,1.22
		c1.6,0.921,1.76,1.24,1.8,4.62v2.301c-0.94,0.34-1.68,0.479-2.3,0.479c-2,0-2.28-1.32-2.28-3.66c0-1.04,0.06-3.359,0.2-4.96
		l-3.88,1.22c1.28,0.921,1.5,1.261,1.5,4.021V108.05z M205.904,110.59c-1.14,0-1.6-0.68-1.6-1.98v-5.399c1.26,0,2.44-0.021,3.7-0.08
		c0.06-0.24,0.08-0.521,0.08-0.84h-3.78l0.1-2.641l-3.76,3.561h1.46c-0.02,2.24-0.04,5.56-0.04,5.96c0,2.22,0.6,3,2.3,3
		c1.52,0,3.2-1.021,3.5-2.16C207.864,110.01,206.984,110.59,205.904,110.59 M196.904,101.91c-2.74,0-5.7,1.8-5.7,5.46
		c0,3.319,2.48,4.8,4.84,4.8c2.72,0,3.72-2,3.92-2.74c-0.8,0.58-1.9,0.88-2.8,0.88c-1.82,0-3.48-1.24-3.48-3.84
		c0-2.56,1.46-3.74,2.42-3.74c1.36,0,1.42,1.96,2.72,1.96c0.6,0,1.3-0.439,1.3-1.18C200.124,102.55,198.704,101.91,196.904,101.91
		 M185.004,111.39c-1.72,0-2.84-1.72-2.84-4.52c0-2.44,0.84-4.221,2.54-4.221c1.64,0,2.76,1.7,2.76,4.66
		C187.464,109.93,186.584,111.39,185.004,111.39 M184.604,112.17c3.28,0,5.34-2.2,5.34-5.36c0-3.06-1.94-4.899-4.84-4.899
		c-3.22,0-5.4,2.3-5.4,5.46C179.704,110.33,181.624,112.17,184.604,112.17 M176.504,108.35c-3.16-3.56-6.08-6.88-9.32-10.439
		c0,0-0.84,0.04-1.42,0.04c-0.42,0-1.44-0.021-1.7-0.04c1.52,1.04,1.92,1.84,1.92,7.479c0,4.82-0.3,5.54-1.68,6.521
		c0,0,0.96-0.061,2.3-0.061c1.34,0,2.96,0.061,2.96,0.061c-1.72-0.96-2.66-1.721-2.66-6.7v-4.021c3.34,3.66,6.52,7.42,9.72,11.061
		c0.24,0.04,0.64,0.04,0.88,0c-0.06-2.561-0.08-5.2-0.08-6.96c0-5.58,0.2-6.38,1.68-7.38c0,0-0.98,0.06-2.32,0.06
		s-2.96-0.06-2.96-0.06c1.76,0.899,2.68,1.819,2.68,6.8V108.35z"/>
	<path d="M223.759,84.919c0,1.031-0.821,1.352-1.491,1.352c-0.65,0-0.97-0.26-0.97-0.781c0-0.68,0.32-0.86,1.31-0.86h1.151V84.919z
		 M224.688,86.909V83.61c0-1.53-0.49-2.189-2.16-2.189c-1,0-1.44,0.219-1.86,0.559v0.91c0.53-0.479,0.99-0.651,1.69-0.651
		c1.191,0,1.401,0.531,1.401,1.423v0.18h-1.101c-1.52,0-2.289,0.479-2.289,1.678c0,0.971,0.559,1.54,1.789,1.54
		c0.7,0,1.251-0.239,1.601-0.728v0.578H224.688z M216.718,82.238c0.721,0,1.401,0.631,1.501,1.421v1.02
		c-0.03,0.781-0.69,1.562-1.521,1.562c-0.86,0-1.38-0.6-1.38-1.62v-0.761C215.318,82.839,215.858,82.238,216.718,82.238
		 M218.219,82.26c-0.36-0.5-0.9-0.839-1.651-0.839c-1.45,0-2.179,1.079-2.179,2.489v0.659c0,1.521,0.749,2.489,2.179,2.489
		c0.771,0,1.291-0.398,1.651-0.938v0.788h0.929V79.36h-0.929V82.26z M212.179,84.919c0,1.031-0.82,1.352-1.491,1.352
		c-0.65,0-0.97-0.26-0.97-0.781c0-0.68,0.32-0.86,1.31-0.86h1.151V84.919z M213.108,86.909V83.61c0-1.53-0.49-2.189-2.16-2.189
		c-1,0-1.44,0.219-1.859,0.559v0.91c0.529-0.479,0.989-0.651,1.689-0.651c1.191,0,1.401,0.531,1.401,1.423v0.18h-1.101
		c-1.52,0-2.289,0.479-2.289,1.678c0,0.971,0.559,1.54,1.789,1.54c0.701,0,1.251-0.239,1.601-0.728v0.578H213.108z M203.049,86.909
		h0.929v-3.2c0.03-0.91,0.72-1.42,1.451-1.42c0.65,0,1.26,0.409,1.26,1.43v3.19h0.929v-3.261c0-1.398-0.609-2.228-1.959-2.228
		c-0.751,0-1.311,0.309-1.681,0.809v-0.669h-0.929V86.909z M200.589,84.919c0,1.031-0.82,1.352-1.491,1.352
		c-0.65,0-0.97-0.26-0.97-0.781c0-0.68,0.32-0.86,1.311-0.86h1.15V84.919z M201.518,86.909V83.61c0-1.53-0.489-2.189-2.159-2.189
		c-1.001,0-1.441,0.219-1.86,0.559v0.91c0.529-0.479,0.989-0.651,1.689-0.651c1.191,0,1.401,0.531,1.401,1.423v0.18h-1.1
		c-1.521,0-2.29,0.479-2.29,1.678c0,0.971,0.559,1.54,1.789,1.54c0.701,0,1.251-0.239,1.601-0.728v0.578H201.518z M196.388,79.72
		c-0.41-0.26-0.94-0.499-1.94-0.499c-1.85,0-3.219,1.219-3.219,3.489v0.92c0,2.271,1.369,3.429,3.219,3.429
		c0.81,0,1.4-0.148,1.92-0.419V85.74c-0.57,0.33-1.22,0.44-1.92,0.44c-1.3,0-2.21-0.75-2.21-2.48V82.64
		c0-1.729,1.01-2.541,2.21-2.541c0.86,0,1.5,0.261,1.94,0.621V79.72z"/>
	<path d="M236.794,41.629c1.61,0,2.53,1.035,2.53,2.99c0,0.184,0,0.367-0.023,0.528h-5.382
		C234.149,42.985,235.093,41.629,236.794,41.629 M237.531,52.14c1.242,0,2.599-0.345,3.197-0.736v-1.587
		c-0.736,0.46-1.955,0.76-3.082,0.76c-2.369,0-3.726-1.059-3.795-4.025h6.877c0.138-0.598,0.23-1.288,0.23-1.84
		c0-2.875-1.518-4.531-4.071-4.531c-3.105,0-4.715,2.646-4.715,6.279C232.172,50.507,234.265,52.14,237.531,52.14 M230.746,51.91
		v-1.427l-1.863-0.046v-8.739l0.23-1.288h-3.243l-0.345,0.896v0.575h1.748v8.556l-1.633,0.046v1.427H230.746z M226.858,37.604
		c0,0.645,0.529,1.173,1.196,1.173c0.713,0,1.242-0.528,1.242-1.173c0-0.689-0.529-1.219-1.242-1.219
		C227.388,36.385,226.858,36.914,226.858,37.604 M224.536,51.864v-1.449c-0.299,0.161-0.667,0.229-0.989,0.229
		c-0.736,0-0.989-0.253-0.989-1.127V36.408l0.23-1.288h-3.174l-0.345,0.896v0.575h1.679v13.271c0,1.702,0.92,2.277,2.254,2.277
		C223.662,52.14,224.283,52.024,224.536,51.864 M211.702,51.91h5.336v-1.427l-2.093-0.046V43.63c0.805-1.15,1.748-1.633,3.197-1.633
		h0.506V40.41c-0.322-0.115-0.644-0.185-1.035-0.185c-1.38,0-2.254,0.645-2.737,1.886V40.41h-2.944l-0.345,0.896v0.575h1.748v8.556
		l-1.633,0.046V51.91z M204.803,50.645c-1.426,0-2.3-0.713-2.3-1.978c0-1.312,0.897-2.14,3.404-2.14h1.472v2.898
		C206.85,50.185,205.907,50.645,204.803,50.645 M209.311,52.14c0.575,0,1.012-0.092,1.403-0.322v-1.448
		c-0.276,0.184-0.552,0.275-0.874,0.275c-0.644,0-0.851-0.391-0.851-1.104v-5.566c0-2.507-1.403-3.795-4.094-3.795
		c-1.104,0-2.461,0.23-3.404,0.645v2.989h1.426l0.046-1.908c0.598-0.139,1.288-0.207,1.794-0.207c1.909,0,2.622,0.667,2.622,2.645
		v0.805H205.7c-3.358,0-4.853,1.288-4.853,3.611c0,2.047,1.564,3.381,3.588,3.381c1.38,0,2.461-0.529,3.036-1.356
		C207.678,51.634,208.345,52.14,209.311,52.14 M192.59,50.483l-1.863-0.046v-6.945c0.782-1.059,2.185-1.726,3.174-1.726
		c1.587,0,2.346,0.92,2.346,2.875v5.796l-1.817,0.046v1.427h5.06v-1.427l-1.633-0.046v-6.302c0-2.3-1.265-3.956-3.588-3.956
		c-1.426,0-2.783,0.645-3.542,1.863v-5.635l0.23-1.288h-3.243l-0.345,0.896v0.575h1.748v13.846l-1.518,0.046v1.427h4.991V50.483z
		 M186.035,51.174v-1.725c-1.127,0.713-2.461,1.081-3.956,1.081c-3.174,0-5.129-1.863-5.129-6.142c0-4.231,1.932-6.279,5.037-6.279
		c0.874,0,1.679,0.139,2.461,0.392l0.046,2.276h1.541v-3.381c-1.012-0.598-2.76-0.896-3.956-0.896c-4.761,0-6.877,3.174-6.877,8.004
		c0,5.152,2.622,7.636,6.785,7.636C183.574,52.14,185.252,51.749,186.035,51.174"/>
	<path d="M227.304,24.919c0,1.031-0.821,1.352-1.491,1.352c-0.65,0-0.971-0.261-0.971-0.78c0-0.681,0.321-0.861,1.311-0.861h1.151
		V24.919z M228.232,26.909V23.61c0-1.531-0.489-2.19-2.159-2.19c-1.001,0-1.44,0.221-1.86,0.56v0.911
		c0.529-0.481,0.99-0.651,1.69-0.651c1.19,0,1.401,0.53,1.401,1.421v0.18h-1.101c-1.52,0-2.289,0.479-2.289,1.68
		c0,0.971,0.559,1.54,1.789,1.54c0.7,0,1.25-0.24,1.601-0.729v0.579H228.232z M221.734,20.449h0.989V19.36h-0.989V20.449z
		 M221.764,26.909h0.929v-5.349h-0.929V26.909z M218.864,25.46c0,1.05,0.249,1.6,1.328,1.6c0.24,0,0.48-0.061,0.61-0.12v-0.799
		c-0.11,0.05-0.28,0.09-0.5,0.09c-0.41,0-0.51-0.23-0.51-0.83v-6.04h-0.928V25.46z M216.444,24.919c0,1.031-0.821,1.352-1.491,1.352
		c-0.65,0-0.97-0.261-0.97-0.78c0-0.681,0.32-0.861,1.31-0.861h1.151V24.919z M217.374,26.909V23.61c0-1.531-0.49-2.19-2.16-2.19
		c-1,0-1.44,0.221-1.86,0.56v0.911c0.53-0.481,0.99-0.651,1.69-0.651c1.191,0,1.401,0.53,1.401,1.421v0.18h-1.101
		c-1.52,0-2.289,0.479-2.289,1.68c0,0.971,0.559,1.54,1.789,1.54c0.7,0,1.251-0.24,1.601-0.729v0.579H217.374z M209.875,26.909
		h0.928V23.91c0.03-0.921,0.72-1.621,1.45-1.621c0.08,0,0.15,0.01,0.22,0.021v-0.89c-0.75,0-1.3,0.391-1.67,0.939v-0.799h-0.928
		V26.909z M205.384,22.35h0.95v2.811c0,1.16,0.479,1.899,1.709,1.899c0.32,0,0.59-0.051,0.76-0.101V26.15
		c-0.15,0.05-0.49,0.08-0.69,0.08c-0.66,0-0.85-0.33-0.85-1.13V22.35h1.4v-0.789h-1.4v-1.65h-0.929v1.65h-0.95V22.35z
		 M200.564,26.641c0.459,0.249,1.279,0.408,1.859,0.408c1.031,0,2.27-0.499,2.27-1.688c0-1.101-0.689-1.47-1.589-1.54l-0.601-0.05
		c-0.53-0.04-1.12-0.141-1.12-0.721c0-0.541,0.46-0.801,1.24-0.801c0.511,0,1.241,0.16,1.84,0.5V21.82
		c-0.459-0.25-1.119-0.41-1.94-0.41c-1.05,0-2.029,0.569-2.029,1.59c0,1.181,0.799,1.509,1.639,1.56l0.53,0.04
		c0.651,0.029,1.121,0.25,1.121,0.82c0,0.58-0.54,0.82-1.321,0.82c-0.7,0-1.29-0.22-1.899-0.521V26.641z M199.193,21.561h-0.929
		v3.13c0,0.96-0.65,1.49-1.401,1.49c-0.65,0-1.26-0.311-1.26-1.33v-3.29h-0.929v3.26c0,1.399,0.669,2.229,2.019,2.229
		c0.721,0,1.231-0.29,1.571-0.759v0.619h0.929V21.561z M190.493,20.499l1.25,3.651h-2.569L190.493,20.499z M187.145,26.909h1.04
		l0.68-1.88h3.179l0.64,1.88h1.15l-2.76-7.549h-1.07L187.145,26.909z"/>
	<path d="M108.754,217.63h1.26v-1.26h-1.26V217.63z M108.754,219.05h1.26v-1.26h-1.26V219.05z M107.334,220.47h1.26v-1.26h-1.26
		V220.47z M107.334,221.89h1.26v-1.26h-1.26V221.89z M105.914,223.31h1.26v-1.26h-1.26V223.31z M105.914,224.729h1.26v-1.26h-1.26
		V224.729z M100.234,217.63h1.26v-1.26h-1.26V217.63z M100.234,219.05h1.26v-1.26h-1.26V219.05z M101.654,220.47h1.26v-1.26h-1.26
		V220.47z M101.654,221.89h1.26v-1.26h-1.26V221.89z M103.074,223.31h1.26v-1.26h-1.26V223.31z M103.074,224.729h1.26v-1.26h-1.26
		V224.729z M104.494,226.149h1.26v-1.26h-1.26V226.149z M104.494,227.569h1.26v-1.26h-1.26V227.569z M104.494,230.41h1.26v-1.261
		h-1.26V230.41z M104.494,228.99h1.26v-1.261h-1.26V228.99z M104.494,231.83h1.26v-1.261h-1.26V231.83z M87.955,217.01h0.96
		c2.14,0.08,3.94,1.3,3.94,3.82c0,2.359-1.42,3.8-4.9,3.76V217.01z M86.175,216.189v15.721h1.78v-6.721
		c0.84,0.021,1.62-0.04,2.34-0.18c1.9,2.26,4.04,4.92,5.4,5.86c0.88,0.64,1.64,1.02,2.76,1.02c0.34,0,0.66-0.02,1.02-0.08
		l0.08-0.399c-0.9-0.261-1.84-1.04-2.62-1.74c-1.38-1.24-4.12-4.34-4.9-5.24c1.7-0.8,2.66-2.22,2.66-3.96c0-2.32-1.24-4.28-5.3-4.28
		H86.175z M67.835,224.03c0.02-3.141,2.36-7.86,7.84-7.841c4.52,0.021,7.72,2.92,7.82,7.521c0.08,4.54-3.14,8.18-7.94,8.2
		C70.135,231.93,67.815,227.67,67.835,224.03 M67.635,224.03c-0.02,3.739,2.34,8.1,7.92,8.079c4.9-0.02,8.22-3.76,8.14-8.399
		c-0.1-4.74-3.4-7.7-8.02-7.72C70.035,215.97,67.655,220.79,67.635,224.03 M59.435,219.229h2.4v-0.399h-2.4V219.229z M59.435,231.91
		h2.4v-0.4h-2.4V231.91z M59.435,230.75h2.4v-0.4h-2.4V230.75z M59.435,229.609h2.4v-0.399h-2.4V229.609z M59.435,228.45h2.4v-0.4
		h-2.4V228.45z M59.435,227.29h2.4v-0.4h-2.4V227.29z M59.435,226.149h2.4v-0.399h-2.4V226.149z M59.435,224.99h2.4v-0.4h-2.4
		V224.99z M59.435,223.83h2.4v-0.4h-2.4V223.83z M59.435,222.689h2.4v-0.399h-2.4V222.689z M59.435,221.53h2.4v-0.4h-2.4V221.53z
		 M59.435,220.37h2.4v-0.4h-2.4V220.37z M67.095,216.189h-0.4v2.24h0.4V216.189z M54.315,218.43h0.4v-2.24h-0.4V218.43z
		 M55.435,218.43h0.4v-2.24h-0.4V218.43z M56.575,218.43h0.4v-2.24h-0.4V218.43z M57.695,218.43h0.4v-2.24h-0.4V218.43z
		 M58.815,218.43h0.4v-2.24h-0.4V218.43z M59.935,218.43h0.4v-2.24h-0.4V218.43z M61.075,218.43h0.4v-2.24h-0.4V218.43z
		 M62.195,218.43h0.4v-2.24h-0.4V218.43z M63.315,218.43h0.4v-2.24h-0.4V218.43z M64.435,218.43h0.4v-2.24h-0.4V218.43z
		 M65.575,218.43h0.4v-2.24h-0.4V218.43z M50.015,231.83c2.06-0.7,3.3-2.48,3.3-4.28c0-4.9-7.48-5.4-7.48-8.36
		c0-0.8,0.32-1.72,1.38-2.46l0.86-0.6c-2.22,0.64-3.3,2.52-3.3,4.3c0,4.521,7.28,5.04,7.28,8.521c0,0.64-0.4,1.619-1.28,2.26
		L50.015,231.83z M40.775,231.81c0,0.061,0.04,0.101,0.1,0.101s0.1-0.04,0.1-0.101v-15.52c0-0.061-0.04-0.101-0.1-0.101
		s-0.1,0.04-0.1,0.101V231.81z M24.175,216.189h-0.48v15.721h0.48V216.189z M25.135,216.189h-0.48v15.721h0.48V216.189z
		 M26.095,231.91v-6.74h7.98v6.74h0.48v-6.74h0.48v6.74h0.48v-6.74h0.48v6.74h0.48v-7.181h-10.38v-0.439h10.38v-0.44h-10.38v-0.439
		h10.38v-7.221h-0.48v6.761h-0.48v-6.761h-0.48v6.761h-0.48v-6.761h-0.48v6.761h-7.98v-6.761h-0.48v15.721H26.095z"/>
	<path d="M79.774,202.239c0.861,0,1.361,0.5,1.361,1.521v0.09h-2.711C78.424,202.84,78.914,202.239,79.774,202.239 M82.064,203.811
		c0-1.621-0.969-2.391-2.29-2.391c-1.32,0-2.279,0.97-2.279,2.49v0.659c0,1.621,1.059,2.49,2.479,2.49c0.841,0,1.371-0.13,1.96-0.47
		v-0.829c-0.689,0.42-1.189,0.479-1.869,0.479c-0.951,0-1.631-0.58-1.641-1.601h3.64V203.811z M74.974,201.42
		c-1.69,0-2.449,1.1-2.449,2.489v0.66c0,1.521,0.959,2.49,2.379,2.49c0.67,0,1.23-0.181,1.61-0.44v-0.879
		c-0.59,0.37-1.08,0.5-1.59,0.5c-0.92,0-1.47-0.6-1.47-1.621v-0.76c0-1.07,0.56-1.62,1.51-1.62c0.52,0,1.03,0.13,1.56,0.5v-0.96
		C76.094,201.54,75.584,201.42,74.974,201.42 M66.675,206.909h0.929v-3.2c0.03-0.909,0.72-1.42,1.451-1.42
		c0.65,0,1.26,0.41,1.26,1.431v3.189h0.929v-3.26c0-1.4-0.609-2.229-1.959-2.229c-0.751,0-1.311,0.311-1.681,0.81v-0.669h-0.929
		V206.909z M64.215,204.919c0,1.031-0.82,1.352-1.491,1.352c-0.65,0-0.97-0.26-0.97-0.781c0-0.68,0.32-0.86,1.311-0.86h1.15V204.919
		z M65.144,206.909v-3.299c0-1.531-0.489-2.19-2.159-2.19c-1.001,0-1.441,0.221-1.86,0.56v0.91c0.529-0.48,0.989-0.65,1.69-0.65
		c1.19,0,1.4,0.53,1.4,1.421v0.181h-1.1c-1.521,0-2.29,0.479-2.29,1.679c0,0.971,0.56,1.54,1.789,1.54
		c0.701,0,1.251-0.24,1.601-0.729v0.579H65.144z M57.645,206.909h0.929v-3c0.03-0.92,0.72-1.62,1.45-1.62
		c0.08,0,0.15,0.011,0.22,0.021v-0.89c-0.75,0-1.3,0.39-1.67,0.939v-0.799h-0.929V206.909z M56.304,202.62h-3.28v-2.381h3.57v-0.879
		h-4.549v7.549h0.979v-3.43h3.28V202.62z"/>
	<path d="M122.956,170.691c-1.386,0-2.436-0.356-2.478-2.058h-1.722c0.105,2.709,1.848,3.486,4.116,3.486
		c2.856,0,4.326-1.261,4.326-3.234c0-2.016-1.512-2.688-3.549-3.213l-0.504-0.126c-1.281-0.336-2.331-0.525-2.331-1.596
		c0-0.799,0.609-1.533,2.247-1.533c1.218,0,2.289,0.42,2.331,2.163h1.743c-0.063-2.688-2.079-3.591-4.095-3.591
		c-2.142,0-4.011,1.028-4.011,3.107c0,1.743,1.344,2.353,3.171,2.856l0.441,0.104c1.533,0.399,2.772,0.714,2.772,1.995
		C125.413,170.167,124.615,170.691,122.956,170.691 M112.729,160.99c-1.785,0-2.835,0.84-3.423,2.016l-0.021-1.806h-1.659v10.71
		h1.701v-5.628c0.021-2.059,0.756-3.822,2.961-3.822c1.617,0,2.373,0.945,2.373,2.729v6.721h1.701v-6.805
		C116.361,162.628,115.27,160.99,112.729,160.99 M97.734,168.823c0-1.429,0.903-2.101,2.919-2.101h2.163v0.483
		c-0.063,1.322-0.777,3.549-3.045,3.549C98.68,170.755,97.734,170.251,97.734,168.823 M100.548,162.376
		c1.47,0,2.268,0.588,2.268,1.911v1.218h-2.226c-3.108,0-4.641,1.323-4.641,3.402c0,1.952,1.365,3.213,3.465,3.213
		c1.596,0,2.814-0.735,3.423-2.121l0.063,1.911h1.638v-7.729c0-2.226-1.701-3.191-3.906-3.191c-2.646,0-4.137,1.322-4.2,3.465h1.617
		C98.07,163.236,98.764,162.376,100.548,162.376 M88.916,170.587c-1.932,0-3.108-0.63-3.15-2.898h-1.764
		c0.084,3.423,2.289,4.41,4.767,4.41c3.444,0,5.229-1.575,5.229-3.99c0-2.709-2.037-3.317-4.368-3.947
		c-2.226-0.63-3.402-1.009-3.402-2.457c0-1.177,0.84-2.121,2.94-2.121c1.827,0,2.898,0.672,2.982,3.003h1.764
		c-0.084-3.423-2.226-4.536-4.704-4.536c-2.646,0-4.83,1.26-4.83,3.864c0,2.247,1.722,2.919,4.074,3.633
		c2.205,0.651,3.717,0.945,3.717,2.709C92.17,169.936,90.869,170.587,88.916,170.587 M77.471,161.074
		c-1.596,0-2.499,0.818-3.003,1.974l-0.021-1.848h-1.638v10.71h1.701v-5.418c0.042-2.059,0.651-3.696,2.835-3.696
		c0.231,0,0.42,0,0.714,0.042v-1.722C77.849,161.074,77.681,161.074,77.471,161.074 M62.729,165.693
		c0.21-2.31,1.281-3.255,2.961-3.255c2.1,0,2.562,1.323,2.646,3.255H62.729z M70.163,166.996c0.021-0.21,0.021-0.441,0.021-0.651
		c0-3.108-1.176-5.354-4.368-5.354c-3.276,0-4.935,2.31-4.935,5.796c0,3.401,1.617,5.334,4.935,5.334
		c1.932,0,4.011-0.651,4.368-3.402H68.44c-0.084,1.554-1.407,1.932-2.625,1.932c-2.142,0-3.066-1.112-3.129-3.653H70.163z
		 M54.749,160.99c-1.785,0-2.835,0.84-3.423,2.016l-0.021-1.806h-1.659v10.71h1.701v-5.628c0.021-2.059,0.756-3.822,2.961-3.822
		c1.617,0,2.373,0.945,2.373,2.729v6.721h1.701v-6.805C58.381,162.628,57.29,160.99,54.749,160.99 M42.926,160.99
		c-1.785,0-2.835,0.84-3.423,2.016l-0.021-1.806h-1.659v10.71h1.701v-5.628c0.021-2.059,0.756-3.822,2.961-3.822
		c1.617,0,2.373,0.945,2.373,2.729v6.721h1.701v-6.805C46.559,162.628,45.466,160.99,42.926,160.99 M27.744,165.693
		c0.21-2.31,1.281-3.255,2.961-3.255c2.1,0,2.562,1.323,2.646,3.255H27.744z M35.178,166.996c0.021-0.21,0.021-0.441,0.021-0.651
		c0-3.108-1.176-5.354-4.368-5.354c-3.276,0-4.935,2.31-4.935,5.796c0,3.401,1.617,5.334,4.935,5.334
		c1.932,0,4.011-0.651,4.368-3.402h-1.743c-0.084,1.554-1.407,1.932-2.625,1.932c-2.142,0-3.066-1.112-3.129-3.653H35.178z
		 M24.341,161.074c-1.596,0-2.499,0.818-3.003,1.974l-0.021-1.848H19.68v10.71h1.701v-5.418c0.042-2.059,0.651-3.696,2.835-3.696
		c0.231,0,0.42,0,0.714,0.042v-1.722C24.72,161.074,24.552,161.074,24.341,161.074 M9.033,164.182v-4.41h2.583
		c2.478,0,3.276,0.714,3.276,2.121c0,2.017-1.68,2.289-3.255,2.289H9.033z M9.033,170.397v-4.725H11.7
		c2.205,0,3.423,0.693,3.423,2.499c0,1.743-1.155,2.226-3.381,2.226H9.033z M11.889,171.91c2.625,0,5.04-0.799,5.04-3.696
		c0-1.659-0.819-2.94-2.856-3.381c1.68-0.357,2.646-1.407,2.646-3.15c0-2.352-1.68-3.423-4.62-3.423H7.311v13.65H11.889z"/>
	<path d="M100.443,141.421c-1.69,0-2.449,1.099-2.449,2.489v0.659c0,1.521,0.959,2.489,2.379,2.489c0.67,0,1.23-0.179,1.61-0.438
		v-0.88c-0.59,0.37-1.08,0.5-1.59,0.5c-0.92,0-1.47-0.6-1.47-1.62v-0.761c0-1.069,0.56-1.621,1.51-1.621
		c0.52,0,1.03,0.132,1.56,0.501v-0.96C101.563,141.541,101.053,141.421,100.443,141.421 M95.705,140.448h0.989v-1.089h-0.989
		V140.448z M95.734,146.909h0.929v-5.35h-0.929V146.909z M92.834,145.461c0,1.049,0.25,1.598,1.329,1.598
		c0.24,0,0.48-0.059,0.61-0.119v-0.799c-0.11,0.05-0.28,0.09-0.5,0.09c-0.41,0-0.51-0.229-0.51-0.83v-6.04h-0.929V145.461z
		 M89.214,142.238c0.86,0,1.4,0.602,1.4,1.621v0.761c0,1.021-0.52,1.62-1.38,1.62c-0.851,0-1.521-0.82-1.521-1.62v-0.96
		C87.813,142.87,88.494,142.238,89.214,142.238 M86.785,146.909h0.929v-0.788c0.35,0.539,0.881,0.938,1.651,0.938
		c1.43,0,2.179-0.968,2.179-2.489v-0.659c0-1.41-0.729-2.489-2.179-2.489c-0.75,0-1.301,0.339-1.651,0.839v-2.899h-0.929V146.909z
		 M85.204,141.561h-0.929v3.13c0,0.96-0.65,1.49-1.4,1.49c-0.651,0-1.261-0.31-1.261-1.33v-3.29h-0.929v3.26
		c0,1.4,0.67,2.229,2.02,2.229c0.72,0,1.23-0.289,1.57-0.758v0.618h0.929V141.561z M77.074,142.238c0.86,0,1.4,0.602,1.4,1.621
		v0.761c0,1.021-0.52,1.62-1.38,1.62c-0.85,0-1.521-0.82-1.521-1.62v-0.96C75.673,142.87,76.354,142.238,77.074,142.238
		 M74.645,149.129h0.929v-3.008c0.35,0.539,0.881,0.938,1.651,0.938c1.43,0,2.179-0.968,2.179-2.489v-0.659
		c0-1.41-0.729-2.489-2.179-2.489c-0.75,0-1.301,0.339-1.651,0.839v-0.699h-0.929V149.129z M71.044,142.238
		c0.86,0,1.361,0.501,1.361,1.522v0.09h-2.712C69.693,142.84,70.185,142.238,71.044,142.238 M73.333,143.811
		c0-1.621-0.968-2.39-2.289-2.39s-2.279,0.969-2.279,2.49v0.658c0,1.621,1.058,2.489,2.479,2.489c0.84,0,1.37-0.129,1.96-0.469
		v-0.83c-0.69,0.421-1.19,0.48-1.87,0.48c-0.95,0-1.631-0.58-1.641-1.602h3.64V143.811z M64.995,140.238
		c1.09,0,1.621,0.281,1.621,1.302c0,0.739-0.311,1.28-1.511,1.28h-1.581v-2.582H64.995z M67.624,141.449
		c0-1.239-0.789-2.089-2.509-2.089h-2.569v7.549h0.978v-3.23h1.821l1.46,3.23h1.159l-1.659-3.399
		C67.185,143.189,67.624,142.48,67.624,141.449 M53.835,146.909h0.929v-3.2c0.03-0.91,0.72-1.42,1.45-1.42
		c0.651,0,1.261,0.409,1.261,1.43v3.19h0.929v-3.261c0-1.398-0.61-2.228-1.96-2.228c-0.75,0-1.31,0.309-1.68,0.809v-2.869h-0.929
		V146.909z M51.024,141.421c-1.69,0-2.449,1.099-2.449,2.489v0.659c0,1.521,0.959,2.489,2.379,2.489c0.67,0,1.23-0.179,1.61-0.438
		v-0.88c-0.59,0.37-1.08,0.5-1.59,0.5c-0.92,0-1.47-0.6-1.47-1.62v-0.761c0-1.069,0.56-1.621,1.51-1.621
		c0.52,0,1.03,0.132,1.56,0.501v-0.96C52.145,141.541,51.634,141.421,51.024,141.421 M45.225,142.238
		c0.861,0,1.361,0.501,1.361,1.522v0.09h-2.711C43.875,142.84,44.364,142.238,45.225,142.238 M47.515,143.811
		c0-1.621-0.969-2.39-2.29-2.39c-1.32,0-2.279,0.969-2.279,2.49v0.658c0,1.621,1.059,2.489,2.48,2.489
		c0.84,0,1.37-0.129,1.959-0.469v-0.83c-0.689,0.421-1.189,0.48-1.869,0.48c-0.951,0-1.631-0.58-1.641-1.602h3.64V143.811z
		 M42.024,141.561h-4.179v0.818h2.989l-3.069,3.842v0.688h4.289v-0.818h-3.149l3.119-3.881V141.561z M36.975,139.72
		c-0.41-0.26-0.94-0.499-1.94-0.499c-1.85,0-3.219,1.219-3.219,3.489v0.92c0,2.271,1.369,3.429,3.219,3.429
		c0.81,0,1.4-0.148,1.92-0.419v-0.899c-0.57,0.33-1.22,0.44-1.92,0.44c-1.3,0-2.21-0.75-2.21-2.481v-1.06
		c0-1.729,1.01-2.541,2.21-2.541c0.86,0,1.5,0.261,1.94,0.621V139.72z"/>
	<path d="M99.654,110.29c0,1.08,0.84,1.92,1.92,1.92c1.08,0,1.94-0.84,1.94-1.92v-2.3c0.06-2.221,0.72-3.44,2.04-3.521
		c0.7-0.04,1.94-0.12,1.94-2c0-1.16-0.46-1.86-1.46-1.86c-1.08,0-1.96,0.801-2.52,1.98v-0.12c0-1.08-0.86-1.939-1.94-1.939
		c-1.08,0-1.92,0.859-1.92,1.939V110.29z M92.514,103.37c0.9,0,1.36,0.52,1.42,1.859v0.101h-2.82
		C91.174,103.95,91.614,103.37,92.514,103.37 M96.794,111.25c0.4-0.28,0.88-0.74,0.88-1.58c0-0.601-0.46-1.22-1.24-1.22
		c-0.68,0-1.8,0.76-2.88,0.76c-1.54,0-2.24-0.44-2.4-1.62h4.8c1.04,0,1.9-0.8,1.94-1.84v-0.16c-0.06-3.36-2.18-5.06-5.38-5.06
		c-3.24,0-5.34,1.739-5.34,5.18v1.12c0,3.5,1.52,5.38,5.8,5.38C94.274,112.21,96.014,111.79,96.794,111.25 M79.854,103.37
		c1.06,0,1.7,0.6,1.7,2.04v1.92c0,1.439-0.64,2.04-1.66,2.04c-1.06,0-1.6-0.58-1.64-1.84v-2.36
		C78.314,103.79,78.934,103.37,79.854,103.37 M74.394,110.29c0,1.08,0.84,1.92,1.92,1.92c0.92,0,1.68-0.601,1.88-1.46
		c0.6,0.92,1.52,1.46,2.96,1.46c2.86,0,4.46-1.34,4.46-4.98v-1.72c0-3.42-1.56-4.979-4.46-4.979c-1.38,0-2.3,0.5-2.9,1.34v-3.4
		c0-1.08-0.86-1.939-1.94-1.939s-1.92,0.859-1.92,1.939V110.29z M65.214,105.81c0-1.84,0.48-2.439,1.6-2.439s1.64,0.6,1.64,2.439
		v1.12c0,1.84-0.52,2.44-1.64,2.44s-1.6-0.601-1.6-2.44V105.81z M61.174,107.03c0,3.64,2.4,5.18,5.64,5.18
		c3.24,0,5.68-1.54,5.68-5.18v-1.32c0-3.641-2.44-5.18-5.68-5.18c-3.24,0-5.64,1.539-5.64,5.18V107.03z M53.475,100.81
		c-0.78,0-1.42,0.641-1.42,1.42c0,0.78,0.64,1.42,1.42,1.42h0.2v5c0,2.381,1.74,3.561,3.58,3.561c0.78,0,1.52-0.12,2.06-0.42
		c0.56-0.3,0.92-0.76,0.92-1.42c0-0.88-0.36-1.38-1.24-1.38c-0.14,0-0.46,0.079-0.6,0.079c-0.4,0-0.86-0.14-0.86-1.199v-4.221h1.14
		c0.78,0,1.42-0.64,1.42-1.42c0-0.779-0.64-1.42-1.42-1.42h-1.14v-1.66c0-1.08-0.86-1.939-1.94-1.939c-1.08,0-1.92,0.859-1.92,1.939
		v1.66H53.475z M47.215,100.53c-4.02,0-5.74,1.92-5.74,5.319v1.04c0,3.4,1.72,5.32,5.74,5.32c1.28,0,2.58-0.26,3.38-0.9
		c0.48-0.38,0.78-0.899,0.78-1.58c0-0.6-0.46-1.319-1.24-1.319h-0.16c-0.72,0.1-1.28,0.739-2.28,0.739c-1.38,0-2.18-0.779-2.18-2.22
		v-1.12c0-1.439,0.8-2.22,2.18-2.22c0.96,0,1.54,0.6,2.2,0.72c0.08,0.021,0.16,0.021,0.24,0.021c0.78,0,1.34-0.681,1.34-1.4
		c0-0.7-0.3-1.2-0.8-1.56C49.815,100.729,48.395,100.53,47.215,100.53 M30.915,103.17c0-1.76,0.42-3.44,2.46-3.44
		c2.28,0,2.52,1.681,2.52,3.44v2.52c0,1.641-0.36,3.32-2.52,3.32c-2.12,0-2.46-1.7-2.46-3.32V103.17z M26.955,105.55
		c0,4.54,2.74,6.66,6.44,6.66s6.46-2.141,6.46-6.66v-2.24c0-4.52-2.76-6.779-6.46-6.779s-6.44,2.239-6.44,6.779V105.55z"/>
	<path d="M84.615,84.919c0,1.031-0.82,1.352-1.491,1.352c-0.65,0-0.97-0.261-0.97-0.78c0-0.681,0.32-0.861,1.311-0.861h1.15V84.919z
		 M85.544,86.909V83.61c0-1.531-0.489-2.19-2.159-2.19c-1.001,0-1.441,0.221-1.86,0.56v0.911c0.529-0.481,0.989-0.651,1.689-0.651
		c1.191,0,1.401,0.53,1.401,1.421v0.18h-1.1c-1.521,0-2.29,0.479-2.29,1.68c0,0.971,0.559,1.54,1.789,1.54
		c0.701,0,1.251-0.24,1.601-0.729v0.579H85.544z M79.045,80.449h0.989V79.36h-0.989V80.449z M79.075,86.909h0.929v-5.349h-0.929
		V86.909z M75.455,86.909h0.929V83.91c0.03-0.921,0.72-1.621,1.45-1.621c0.08,0,0.15,0.01,0.22,0.021v-0.89
		c-0.75,0-1.3,0.391-1.67,0.939v-0.799h-0.929V86.909z M72.995,84.919c0,1.031-0.82,1.352-1.49,1.352
		c-0.651,0-0.971-0.261-0.971-0.78c0-0.681,0.32-0.861,1.311-0.861h1.15V84.919z M73.924,86.909V83.61
		c0-1.531-0.489-2.19-2.159-2.19c-1.001,0-1.441,0.221-1.86,0.56v0.911c0.529-0.481,0.989-0.651,1.69-0.651
		c1.19,0,1.4,0.53,1.4,1.421v0.18h-1.1c-1.521,0-2.29,0.479-2.29,1.68c0,0.971,0.56,1.54,1.789,1.54c0.701,0,1.251-0.24,1.601-0.729
		v0.579H73.924z M65.955,82.239c0.72,0,1.4,0.63,1.5,1.42v0.961c0,0.8-0.67,1.62-1.52,1.62c-0.861,0-1.381-0.6-1.381-1.62v-0.76
		C64.554,82.839,65.094,82.239,65.955,82.239 M68.384,81.561h-0.929v0.698c-0.36-0.499-0.9-0.839-1.65-0.839
		c-1.451,0-2.18,1.079-2.18,2.49v0.66c0,1.52,0.749,2.489,2.18,2.489c0.77,0,1.29-0.399,1.65-0.939v0.54c0,1.04-0.37,1.76-1.67,1.76
		c-0.491,0-1.211-0.109-1.82-0.38v0.87c0.509,0.199,1.159,0.339,1.8,0.339c1.79,0,2.619-1.119,2.619-2.529V81.561z M60.975,85.46
		c0,1.05,0.25,1.6,1.329,1.6c0.24,0,0.48-0.061,0.61-0.12v-0.799c-0.11,0.05-0.28,0.09-0.5,0.09c-0.41,0-0.51-0.23-0.51-0.83v-6.04
		h-0.929V85.46z M59.434,81.561h-0.929v3.13c0,0.96-0.65,1.49-1.4,1.49c-0.651,0-1.261-0.311-1.261-1.33v-3.29h-0.929v3.26
		c0,1.399,0.67,2.229,2.02,2.229c0.72,0,1.23-0.29,1.57-0.759v0.619h0.929V81.561z M50.795,80.239c0.89,0,1.621,0.18,1.621,1.201
		c0,0.74-0.311,1.18-1.511,1.18h-1.581v-2.381H50.795z M50.955,83.479c1.28,0,1.661,0.39,1.661,1.331c0,0.899-0.671,1.22-1.691,1.22
		h-1.601v-2.551H50.955z M51.035,86.909c1.91,0,2.599-0.999,2.599-2.159c0-0.961-0.499-1.551-1.259-1.78
		c0.66-0.31,1.049-0.789,1.049-1.619c0-1.241-0.789-1.99-2.509-1.99h-2.569v7.549H51.035z"/>
	<path d="M112.204,52.149c1.94,0,4.24-0.8,4.24-3.14c0-3.62-5.46-2.88-5.46-5.38c0-0.9,0.64-1.6,2.14-1.6c0.8,0,1.7,0.18,2.4,0.46
		l0.36-1.261c-0.78-0.34-1.88-0.52-2.74-0.52c-2.04,0-3.7,1.06-3.7,3.06c0,3.601,5.5,2.9,5.5,5.34c0,1.08-1.02,1.7-2.62,1.7
		c-0.94,0-1.96-0.2-2.92-0.479l-0.26,1.34C109.943,51.93,111.184,52.149,112.204,52.149 M97.943,51.91h1.58v-8.46
		c0.98-0.681,2.1-1.341,3.5-1.341c1.86,0,2.16,1.181,2.16,3.061v6.74h1.54v-7.04c0-1.84-0.2-4.16-3.3-4.16
		c-1.7,0-2.76,0.68-3.9,1.52V40.99h-1.58V51.91z M89.705,50.81c-1.2,0-2.1-0.6-2.1-1.859c0-1.28,0.94-2.04,2.64-2.101l2.62-0.1v2.84
		C92.044,50.189,90.904,50.81,89.705,50.81 M89.345,52.09c1.88,0,3.1-1.021,3.64-1.44c0.14,0.98,1.14,1.381,2.1,1.381
		c0.14,0,0.34-0.021,0.44-0.04l0.06-1.221c-0.52,0-1.18-0.18-1.18-1v-6.04c0-2.14-1.46-3.02-3.86-3.02c-1.48,0-2.7,0.32-3.54,0.68
		l0.36,1.24c0.9-0.34,1.78-0.54,2.96-0.54c1.72,0,2.54,0.42,2.54,2.16v1.399l-2.6,0.04c-1.78,0.04-4.18,0.601-4.18,3.32
		C86.084,50.99,87.365,52.09,89.345,52.09 M79.305,52.149c2.72,0,5-1.279,5-3.979c0-4.48-7.02-3.96-7.02-7.14
		c0-1.44,1.22-2.08,2.68-2.08c1.12,0,2.02,0.26,2.94,0.68l0.5-1.28c-0.86-0.46-1.88-0.78-3.48-0.78c-2.26,0-4.22,1.221-4.22,3.5
		c0,4.641,6.94,3.681,6.94,7.221c0,1.819-1.76,2.42-3.32,2.42c-1.34,0-2.4-0.38-3.44-0.9l-0.52,1.36
		C76.185,51.67,77.544,52.149,79.305,52.149 M62.604,50.81c-1.2,0-2.1-0.6-2.1-1.859c0-1.28,0.94-2.04,2.64-2.101l2.62-0.1v2.84
		C64.944,50.189,63.805,50.81,62.604,50.81 M62.245,52.09c1.88,0,3.1-1.021,3.64-1.44c0.14,0.98,1.14,1.381,2.1,1.381
		c0.14,0,0.34-0.021,0.44-0.04l0.06-1.221c-0.52,0-1.18-0.18-1.18-1v-6.04c0-2.14-1.46-3.02-3.86-3.02c-1.48,0-2.7,0.32-3.54,0.68
		l0.36,1.24c0.9-0.34,1.78-0.54,2.96-0.54c1.72,0,2.54,0.42,2.54,2.16v1.399l-2.6,0.04c-1.78,0.04-4.18,0.601-4.18,3.32
		C58.984,50.99,60.265,52.09,62.245,52.09 M52.064,51.91h1.58v-8.04c0.52-0.801,1.52-1.74,2.84-1.74c0.64,0,0.96,0.06,1.3,0.14
		l0.26-1.34c-0.2-0.06-0.64-0.18-1.28-0.18c-1.54,0-2.62,0.88-3.12,1.7v-1.46h-1.58V51.91z M44.366,50.77
		c-1.66,0-2.981-1.279-2.981-4.18c0-2.34,0.86-4.58,3.72-4.58c0.961,0,1.72,0.22,2.02,0.34v7.2
		C46.625,49.99,45.604,50.77,44.366,50.77 M44.165,52.109c1.38,0,2.18-0.54,2.96-1.239v1.04h1.581V36.83h-1.581v4.16
		c-0.72-0.2-1.259-0.28-1.919-0.28c-3.161,0-5.42,1.82-5.42,5.979C39.786,51.21,42.444,52.109,44.165,52.109 M30.505,45.569
		c0.18-2.439,1.4-3.619,2.98-3.619c1.78,0,2.56,1.399,2.56,3.619H30.505z M34.065,52.149c1.38,0,2.62-0.239,3.44-0.58l-0.28-1.279
		c-1.02,0.319-1.84,0.5-2.9,0.5c-2.08,0-3.8-0.66-3.84-4.04h7.2v-0.58c0-3.64-1.26-5.46-4.04-5.46c-2.66,0-4.76,1.7-4.76,5.96
		C28.886,50.83,30.886,52.149,34.065,52.149 M18.545,51.91h1.64V45.89h6.24V44.53h-6.24v-5.421h6.68v-1.34h-8.32V51.91z"/>
	<path d="M85.041,24.919c0,1.031-0.821,1.352-1.491,1.352c-0.651,0-0.971-0.261-0.971-0.78c0-0.681,0.32-0.861,1.311-0.861h1.151
		V24.919z M85.968,26.909V23.61c0-1.531-0.489-2.19-2.159-2.19c-1.001,0-1.44,0.221-1.86,0.56v0.911
		c0.529-0.481,0.989-0.651,1.69-0.651c1.19,0,1.401,0.53,1.401,1.421v0.18h-1.101c-1.521,0-2.289,0.479-2.289,1.68
		c0,0.971,0.559,1.54,1.789,1.54c0.7,0,1.25-0.24,1.601-0.729v0.579H85.968z M79.47,20.449h0.989V19.36H79.47V20.449z M79.5,26.909
		h0.929v-5.349H79.5V26.909z M73.4,26.909h0.928v-3.2c0.031-0.91,0.721-1.42,1.451-1.42c0.65,0,1.261,0.41,1.261,1.43v3.19h0.928
		v-3.26c0-1.4-0.609-2.229-1.959-2.229c-0.75,0-1.31,0.311-1.681,0.81v-0.669H73.4V26.909z M69.799,22.239
		c0.861,0,1.361,0.5,1.361,1.521v0.091h-2.711C68.449,22.839,68.939,22.239,69.799,22.239 M72.089,23.811
		c0-1.621-0.969-2.391-2.29-2.391c-1.32,0-2.279,0.97-2.279,2.49v0.659c0,1.621,1.059,2.49,2.479,2.49
		c0.841,0,1.371-0.131,1.96-0.47v-0.83c-0.689,0.421-1.189,0.48-1.87,0.48c-0.95,0-1.63-0.58-1.64-1.601h3.64V23.811z M58.23,26.909
		h0.929v-3.2c0.03-0.91,0.62-1.42,1.35-1.42c0.651,0,1.261,0.41,1.261,1.43v3.19h0.929v-3.13c0-0.96,0.6-1.49,1.35-1.49
		c0.651,0,1.261,0.41,1.261,1.43v3.19h0.929v-3.26c0-1.4-0.61-2.229-1.96-2.229c-0.84,0-1.44,0.4-1.8,0.999
		c-0.29-0.639-0.859-0.999-1.74-0.999c-0.73,0-1.24,0.3-1.58,0.77v-0.629H58.23V26.909z M54.61,26.909h0.929V23.91
		c0.03-0.921,0.72-1.621,1.45-1.621c0.08,0,0.15,0.01,0.22,0.021v-0.89c-0.75,0-1.3,0.391-1.67,0.939v-0.799H54.61V26.909z
		 M50.379,20.499l1.25,3.651h-2.569L50.379,20.499z M47.03,26.909h1.04l0.68-1.88h3.179l0.64,1.88h1.15l-2.76-7.549h-1.07
		L47.03,26.909z"/>
</g>
</svg>
